<svg xmlns="http://www.w3.org/2000/svg" width="1628" height="594"><path d="M0 0 C1.00929003 -0.00317733 2.01858006 -0.00635465 3.05845464 -0.00962826 C6.46860779 -0.01789321 9.87858781 -0.01182142 13.28874379 -0.00591189 C15.75759508 -0.00890629 18.22644543 -0.01277547 20.69529411 -0.01744422 C26.09455417 -0.02561581 31.49376356 -0.02751883 36.89302482 -0.02400994 C44.97599566 -0.01878971 53.05892974 -0.02503189 61.14189635 -0.03352342 C74.91626935 -0.04764723 88.6906309 -0.05219052 102.46501046 -0.05155188 C116.42928218 -0.05093057 130.39354276 -0.05460264 144.35781175 -0.06353194 C145.67948142 -0.06437162 145.67948142 -0.06437162 147.02785148 -0.06522826 C150.61633823 -0.06751983 154.20482497 -0.06983818 157.79331168 -0.07219155 C195.25645095 -0.09671995 232.71958569 -0.10685996 270.18273207 -0.11171871 C274.21710189 -0.1122424 278.25147171 -0.11276824 282.28584152 -0.11329538 C283.28694217 -0.11342444 284.28804282 -0.1135535 285.31947985 -0.11368647 C307.48958404 -0.11659033 329.65968695 -0.12274783 351.82979029 -0.12939269 C360.95456424 -0.1321161 370.0793382 -0.13474713 379.20411217 -0.13737833 C380.2122794 -0.13766925 381.22044662 -0.13796016 382.25916436 -0.13825989 C440.04484907 -0.15488622 497.83053317 -0.16674073 555.6162203 -0.1691733 C557.77948663 -0.16926793 559.94275296 -0.16936294 562.1060193 -0.16945833 C571.87330874 -0.16988609 581.64059818 -0.17029146 591.40788763 -0.17069669 C595.76350088 -0.17087829 600.11911413 -0.17106318 604.47472738 -0.17124876 C606.65479228 -0.17134078 608.83485719 -0.17143118 611.0149221 -0.17151995 C679.95700515 -0.17433464 748.89905898 -0.19606442 817.84113199 -0.23291022 C869.2454552 -0.26037772 920.64977282 -0.28626739 972.05410367 -0.29285532 C973.08847279 -0.29298876 974.1228419 -0.2931222 975.18855553 -0.29325968 C997.89365774 -0.29613177 1020.59875983 -0.29754923 1043.30386222 -0.29761789 C1051.42785791 -0.29765757 1059.55185361 -0.29781453 1067.6758493 -0.29803241 C1069.69695648 -0.29808605 1071.71806365 -0.29813417 1073.73917082 -0.29817673 C1105.96593296 -0.29892071 1138.19266631 -0.31459922 1170.41941945 -0.33778804 C1202.87192802 -0.36103649 1235.32439948 -0.36829944 1267.77691422 -0.35360717 C1272.25881699 -0.35157942 1276.74071981 -0.3497255 1281.22262269 -0.34797484 C1282.10121947 -0.34762478 1282.97981624 -0.34727473 1283.88503716 -0.34691406 C1297.811166 -0.34182232 1311.73722818 -0.3535411 1325.66334329 -0.37221939 C1339.34862507 -0.39022558 1353.0338107 -0.39046507 1366.71909247 -0.37165707 C1374.74765642 -0.3611589 1382.77593348 -0.36439665 1390.80447186 -0.38777583 C1396.75771249 -0.40359051 1402.71072183 -0.3934517 1408.66395495 -0.3730322 C1411.06270663 -0.36886091 1413.461491 -0.37314367 1415.86020783 -0.38672988 C1419.11089295 -0.40392827 1422.36006526 -0.39037791 1425.61069393 -0.36914349 C1426.53829473 -0.3814516 1427.46589552 -0.39375972 1428.42160543 -0.40644081 C1435.17549418 -0.31390898 1440.50077604 1.45021044 1446.11871988 5.25415033 C1452.13316067 11.56823107 1454.42413008 17.43787481 1454.37878209 26.1503858 C1454.38258776 26.94331794 1454.38639344 27.73625008 1454.39031443 28.55321047 C1454.40065288 31.22061326 1454.39671988 33.88780415 1454.39287454 36.5552215 C1454.39732572 38.48281854 1454.40263937 40.41041374 1454.40874326 42.33800626 C1454.42294812 47.64335396 1454.42458608 52.94864316 1454.42414635 58.25400716 C1454.42579238 63.97264941 1454.43885488 69.6912674 1454.45033914 75.40989679 C1454.47320508 87.91813736 1454.48111148 100.42636097 1454.48616558 112.93461961 C1454.48942077 120.74319249 1454.49594217 128.55176043 1454.50316697 136.36033052 C1454.52273503 157.97540408 1454.5392193 179.59047127 1454.54204351 201.20555395 C1454.5421846 202.24264845 1454.5421846 202.24264845 1454.54232854 203.30069436 C1454.54270702 206.10262283 1454.54307102 208.9045513 1454.54343152 211.70647978 C1454.54370324 213.81538754 1454.54397992 215.9242953 1454.54425699 218.03320307 C1454.54434501 218.73006742 1454.54443303 219.42693178 1454.54452372 220.14491324 C1454.54742876 242.03772926 1454.56952076 263.93045696 1454.60578042 285.82324213 C1454.64651508 310.41856936 1454.67018255 335.01383046 1454.67050302 359.60919404 C1454.67108798 372.63217171 1454.67960496 385.65503573 1454.70850068 398.67798418 C1454.73299141 409.76675619 1454.74031299 420.8553731 1454.72525316 431.94416483 C1454.71807488 437.60212144 1454.71898161 443.25977161 1454.74166375 448.91769403 C1454.7622353 454.09876793 1454.75967005 459.27929945 1454.73878891 464.46036736 C1454.73529056 466.3332004 1454.74021858 468.20607244 1454.75449335 470.07885434 C1454.88871167 488.90310992 1454.88871167 488.90310992 1449.11871988 496.25415033 C1441.98075508 502.93854409 1435.81738328 504.55344032 1426.23743975 504.50830066 C1425.22814972 504.51147799 1424.21885969 504.51465532 1423.17898511 504.51792892 C1419.76883196 504.52619387 1416.35885194 504.52012209 1412.94869596 504.51421255 C1410.47984467 504.51720696 1408.01099432 504.52107614 1405.54214564 504.52574489 C1400.14288558 504.53391647 1394.74367619 504.53581949 1389.34441493 504.5323106 C1381.26144409 504.52709037 1373.17851001 504.53333255 1365.0955434 504.54182408 C1351.3211704 504.55594789 1337.54680885 504.56049118 1323.77242929 504.55985254 C1309.80815757 504.55923123 1295.84389699 504.5629033 1281.879628 504.5718326 C1280.55795834 504.57267228 1280.55795834 504.57267228 1279.20958827 504.57352892 C1275.62110152 504.57582049 1272.03261478 504.57813884 1268.44412807 504.58049222 C1230.9809888 504.60502061 1193.51785406 504.61516062 1156.05470768 504.62001937 C1152.02033786 504.62054306 1147.98596805 504.6210689 1143.95159823 504.62159604 C1142.44994726 504.62178963 1142.44994726 504.62178963 1140.9179599 504.62198713 C1118.74785571 504.62489099 1096.5777528 504.63104849 1074.40764946 504.63769335 C1065.28287552 504.64041676 1056.15810155 504.6430478 1047.03332758 504.645679 C1046.02516036 504.64596991 1045.01699313 504.64626082 1043.97827539 504.64656055 C986.19259068 504.66318688 928.40690658 504.67504139 870.62121946 504.67747396 C868.45795312 504.67756859 866.29468679 504.6776636 864.13142045 504.677759 C854.36413101 504.67818675 844.59684157 504.67859212 834.82955212 504.67899736 C830.47393887 504.67917895 826.11832563 504.67936385 821.76271238 504.67954942 C819.58264747 504.67964144 817.40258256 504.67973184 815.22251766 504.67982061 C746.2804346 504.6826353 677.33838077 504.70436508 608.39630777 504.74121088 C556.99198455 504.76867838 505.58766693 504.79456805 454.18333608 504.80115598 C453.14896697 504.80128942 452.11459785 504.80142286 451.04888422 504.80156034 C428.34378201 504.80443243 405.63867992 504.80584989 382.93357753 504.80591855 C374.80958184 504.80595824 366.68558614 504.80611519 358.56159045 504.80633307 C356.54048328 504.80638672 354.5193761 504.80643483 352.49826893 504.8064774 C320.27150679 504.80722137 288.04477344 504.82289988 255.8180203 504.8460887 C223.36551174 504.86933715 190.91304027 504.8766001 158.46052553 504.86190783 C153.97862276 504.85988008 149.49671994 504.85802616 145.01481706 504.8562755 C144.13622029 504.85592544 143.25762351 504.85557539 142.35240259 504.85521473 C128.42627375 504.85012299 114.50021157 504.86184176 100.57409646 504.88052005 C86.88881469 504.89852625 73.20362905 504.89876573 59.51834729 504.87995773 C51.48978333 504.86945956 43.46150627 504.87269731 35.43296789 504.89607649 C29.47972726 504.91189117 23.52671792 504.90175237 17.5734848 504.88133286 C15.17473313 504.87716157 12.77594875 504.88144433 10.37723192 504.89503055 C7.1265468 504.91222893 3.87737449 504.89867857 0.62674582 504.87744415 C-0.30085498 504.88975226 -1.22845577 504.90206038 -2.18416568 504.91474147 C-8.93805443 504.82220964 -14.26333629 503.05809022 -19.88128012 499.25415033 C-25.89572092 492.94006959 -28.18669033 487.07042585 -28.14134234 478.35791487 C-28.14514801 477.56498272 -28.14895368 476.77205058 -28.15287468 475.95509019 C-28.16321313 473.2876874 -28.15928013 470.62049651 -28.15543479 467.95307916 C-28.15988597 466.02548213 -28.16519962 464.09788692 -28.17130351 462.1702944 C-28.18550837 456.8649467 -28.18714633 451.5596575 -28.1867066 446.2542935 C-28.18835262 440.53565125 -28.20141513 434.81703326 -28.21289939 429.09840387 C-28.23576533 416.59016331 -28.24367172 404.08193969 -28.24872583 391.57368106 C-28.25198102 383.76510818 -28.25850242 375.95654023 -28.26572722 368.14797014 C-28.28529528 346.53289658 -28.30177955 324.91782939 -28.30460376 303.30274671 C-28.30469782 302.61135038 -28.30479188 301.91995404 -28.30488879 301.2076063 C-28.30526727 298.40567783 -28.30563127 295.60374936 -28.30599177 292.80182089 C-28.30626349 290.69291312 -28.30654017 288.58400536 -28.30681723 286.4750976 C-28.30690526 285.77823324 -28.30699328 285.08136888 -28.30708397 284.36338742 C-28.30998901 262.4705714 -28.33208101 240.5778437 -28.36834067 218.68505853 C-28.40907533 194.0897313 -28.4327428 169.4944702 -28.43306327 144.89910662 C-28.43364823 131.87612895 -28.44216521 118.85326493 -28.47106093 105.83031648 C-28.49555166 94.74154447 -28.50287324 83.65292756 -28.48781341 72.56413583 C-28.48063513 66.90617922 -28.48154185 61.24852905 -28.504224 55.59060663 C-28.52479555 50.40953273 -28.5222303 45.22900121 -28.50134916 40.0479333 C-28.49785081 38.17510026 -28.50277882 36.30222823 -28.5170536 34.42944632 C-28.65127191 15.60519074 -28.65127191 15.60519074 -22.88128012 8.25415033 C-15.74331533 1.56975657 -9.57994353 -0.04513965 0 0 Z " fill="#FEFEFE" transform="translate(101.88128012418747,37.745849668979645)"></path><path d="M0 0 C1.90383768 -0.00218827 3.80767388 -0.00657497 5.71150208 -0.01296997 C10.94757112 -0.02418094 16.18312862 -0.00412379 21.41913271 0.02090894 C27.15046252 0.04273821 32.88176865 0.03543615 38.61312866 0.03181934 C49.73934531 0.02916064 60.86536024 0.05225101 71.99152505 0.08432599 C84.86074368 0.12031581 97.72984103 0.12429916 110.59912109 0.12825012 C144.57831975 0.15450543 178.55747344 0.22431096 212.53662109 0.28877258 C288.43662109 0.39189758 364.33662109 0.49502258 442.53662109 0.60127258 C442.53662109 162.96127258 442.53662109 325.32127258 442.53662109 492.60127258 C366.63662109 492.70439758 290.73662109 492.80752258 212.53662109 492.91377258 C188.54201172 492.9592926 164.54740234 493.00481262 139.82568359 493.05171204 C110.59912109 493.07429504 110.59912109 493.07429504 96.93115234 493.07849121 C87.35394182 493.08316276 77.77687636 493.10154092 68.19970703 493.12915039 C57.16036171 493.16092816 46.12115601 493.17546381 35.08176458 493.16849734 C29.43195649 493.16547902 23.78246063 493.17033743 18.1327095 493.19734824 C13.0258825 493.22161552 7.91958957 493.22293215 2.81273842 493.20577812 C0.96467729 493.20365396 -0.88341686 493.2100294 -2.73141289 493.22568548 C-19.44586954 493.3589894 -19.44586954 493.3589894 -25.12444496 488.97905988 C-30.54673727 483.39942283 -31.61255884 478.46628772 -31.6003933 470.99239826 C-31.60304512 470.20623974 -31.60569695 469.42008121 -31.60842913 468.6100997 C-31.6161395 465.95376919 -31.61668197 463.29748477 -31.61727905 460.6411438 C-31.62129252 458.72622309 -31.62573055 456.81130324 -31.63055861 454.89638442 C-31.6425427 449.61687617 -31.6481768 444.33737706 -31.65273976 439.05785787 C-31.65868885 433.37058178 -31.67030037 427.68331667 -31.68103027 421.99604797 C-31.70556931 408.25298421 -31.72018317 394.5099168 -31.73309034 380.76683787 C-31.73680103 376.88688042 -31.74077436 373.00692333 -31.74484301 369.12696624 C-31.7700771 345.04596792 -31.79215184 320.96497005 -31.80457115 296.88396168 C-31.80749251 291.30429901 -31.81046003 285.72463637 -31.81347656 280.14497375 C-31.81384747 279.45176663 -31.81421838 278.75855951 -31.81460053 278.04434612 C-31.82675711 255.56693376 -31.85770295 233.08959969 -31.89939809 210.61222411 C-31.9433921 186.85224272 -31.96910438 163.0923177 -31.97449172 139.33229369 C-31.97790903 126.37864899 -31.98970207 113.42512779 -32.02259445 100.47152138 C-32.0505559 89.44157257 -32.0616114 78.41177259 -32.05039899 67.38179109 C-32.04520249 61.7524445 -32.04816378 56.12340976 -32.07286453 50.4941082 C-32.09528552 45.34143904 -32.09467268 40.18930704 -32.07566066 35.03662892 C-32.07285063 33.17184371 -32.07851462 31.30702262 -32.0934736 29.44229529 C-32.22402244 12.10985459 -32.22402244 12.10985459 -28.01441252 7.05847299 C-27.50257143 6.57759686 -26.99073034 6.09672072 -26.46337891 5.60127258 C-25.98098389 5.08952315 -25.49858887 4.57777372 -25.00157583 4.05051672 C-18.27791585 -1.54349098 -8.22803711 -0.06970727 0 0 Z " fill="#FEFEFE" transform="translate(111.46337890625,43.39872741699219)"></path><path d="M0 0 C1.21526367 0.4340918 1.21526367 0.4340918 2.45507812 0.87695312 C19.07993557 6.99916412 33.27657059 15.91480154 47 27 C46.41605265 30.54815458 45.14990481 32.23629132 42.64526367 34.7746582 C41.9375029 35.49833084 41.22974213 36.22200348 40.50053406 36.96760559 C39.73078751 37.73755356 38.96104095 38.50750153 38.16796875 39.30078125 C37.37981277 40.09655075 36.5916568 40.89232025 35.77961731 41.71220398 C34.11143834 43.3911871 32.43926479 45.06620937 30.76342773 46.73754883 C28.19389135 49.30611108 25.64641578 51.89525083 23.09960938 54.48632812 C21.4778646 56.11327814 19.85485959 57.73897313 18.23046875 59.36328125 C17.46679489 60.14335037 16.70312103 60.92341949 15.91630554 61.72712708 C15.19908829 62.43503891 14.48187103 63.14295074 13.74291992 63.87231445 C13.11528244 64.50200638 12.48764496 65.1316983 11.84098816 65.7804718 C10 67 10 67 7.96260071 66.81364441 C5.49728069 65.79158534 3.3161613 64.40571511 1.07617188 62.96484375 C-17.98538438 50.70394614 -39.98793452 48.09662755 -62.02734375 52.83984375 C-82.86744223 58.48198249 -99.29049324 72.22975918 -110.1796875 90.61328125 C-121.03427264 110.80839996 -122.70141213 132.22392786 -116.60302734 154.03027344 C-115.2000998 158.61279141 -113.2988289 162.80564551 -111 167 C-110.55914062 167.825 -110.11828125 168.65 -109.6640625 169.5 C-98.8810029 188.56397277 -82.04262401 201.33548307 -61.07373047 207.57299805 C-39.31082754 213.11619263 -15.22305581 209.06492949 4 198 C18.69325809 188.44279755 25.59526259 174.21421222 31 158 C7.24 158 -16.52 158 -41 158 C-41 140.51 -41 123.02 -41 105 C0.58 105 42.16 105 85 105 C86.46966985 110.87867939 87.32617251 115.57244377 87.37109375 121.46875 C87.38229752 122.25831589 87.39350128 123.04788177 87.40504456 123.8613739 C87.43223329 126.4078024 87.43869573 128.95343255 87.4375 131.5 C87.43790283 132.37137604 87.43830566 133.24275208 87.4387207 134.14053345 C87.3491954 167.74454999 77.32809484 196.95908421 56 223 C55.04867187 224.20076172 55.04867187 224.20076172 54.078125 225.42578125 C41.80195461 240.19390931 24.34613979 250.14351944 6.78955078 257.27001953 C5.2768295 257.88707774 3.77562638 258.53225998 2.27734375 259.18359375 C-27.1985569 271.18883379 -63.86485905 268.31337303 -92.85253906 256.30029297 C-108.39406345 249.54470555 -121.57067758 240.44618987 -134 229 C-134.88171875 228.21238281 -135.7634375 227.42476562 -136.671875 226.61328125 C-154.97979424 209.44231878 -167.91463366 184.39800037 -173 160 C-173.16991455 159.29423828 -173.3398291 158.58847656 -173.51489258 157.86132812 C-175.35270958 149.38590276 -175.33780297 140.96191009 -175.31567383 132.33154297 C-175.31252307 129.76876872 -175.33601151 127.20716289 -175.36132812 124.64453125 C-175.4013876 114.36760271 -174.54515878 105.00558347 -172 95 C-171.79157471 94.17177734 -171.58314941 93.34355469 -171.3684082 92.49023438 C-161.84107144 57.5342179 -137.7777905 28.78583055 -106.87158203 10.62426758 C-76.26443782 -6.51695828 -33.44839994 -12.07779947 0 0 Z " fill="#36A853" transform="translate(361,160)"></path><path d="M0 0 C1.00929003 -0.00317733 2.01858006 -0.00635465 3.05845464 -0.00962826 C6.46860779 -0.01789321 9.87858781 -0.01182142 13.28874379 -0.00591189 C15.75759508 -0.00890629 18.22644543 -0.01277547 20.69529411 -0.01744422 C26.09455417 -0.02561581 31.49376356 -0.02751883 36.89302482 -0.02400994 C44.97599566 -0.01878971 53.05892974 -0.02503189 61.14189635 -0.03352342 C74.91626935 -0.04764723 88.6906309 -0.05219052 102.46501046 -0.05155188 C116.42928218 -0.05093057 130.39354276 -0.05460264 144.35781175 -0.06353194 C145.67948142 -0.06437162 145.67948142 -0.06437162 147.02785148 -0.06522826 C150.61633823 -0.06751983 154.20482497 -0.06983818 157.79331168 -0.07219155 C195.25645095 -0.09671995 232.71958569 -0.10685996 270.18273207 -0.11171871 C274.21710189 -0.1122424 278.25147171 -0.11276824 282.28584152 -0.11329538 C283.28694217 -0.11342444 284.28804282 -0.1135535 285.31947985 -0.11368647 C307.48958404 -0.11659033 329.65968695 -0.12274783 351.82979029 -0.12939269 C360.95456424 -0.1321161 370.0793382 -0.13474713 379.20411217 -0.13737833 C380.2122794 -0.13766925 381.22044662 -0.13796016 382.25916436 -0.13825989 C440.04484907 -0.15488622 497.83053317 -0.16674073 555.6162203 -0.1691733 C557.77948663 -0.16926793 559.94275296 -0.16936294 562.1060193 -0.16945833 C571.87330874 -0.16988609 581.64059818 -0.17029146 591.40788763 -0.17069669 C595.76350088 -0.17087829 600.11911413 -0.17106318 604.47472738 -0.17124876 C606.65479228 -0.17134078 608.83485719 -0.17143118 611.0149221 -0.17151995 C679.95700515 -0.17433464 748.89905898 -0.19606442 817.84113199 -0.23291022 C869.2454552 -0.26037772 920.64977282 -0.28626739 972.05410367 -0.29285532 C973.08847279 -0.29298876 974.1228419 -0.2931222 975.18855553 -0.29325968 C997.89365774 -0.29613177 1020.59875983 -0.29754923 1043.30386222 -0.29761789 C1051.42785791 -0.29765757 1059.55185361 -0.29781453 1067.6758493 -0.29803241 C1069.69695648 -0.29808605 1071.71806365 -0.29813417 1073.73917082 -0.29817673 C1105.96593296 -0.29892071 1138.19266631 -0.31459922 1170.41941945 -0.33778804 C1202.87192802 -0.36103649 1235.32439948 -0.36829944 1267.77691422 -0.35360717 C1272.25881699 -0.35157942 1276.74071981 -0.3497255 1281.22262269 -0.34797484 C1282.10121947 -0.34762478 1282.97981624 -0.34727473 1283.88503716 -0.34691406 C1297.811166 -0.34182232 1311.73722818 -0.3535411 1325.66334329 -0.37221939 C1339.34862507 -0.39022558 1353.0338107 -0.39046507 1366.71909247 -0.37165707 C1374.74765642 -0.3611589 1382.77593348 -0.36439665 1390.80447186 -0.38777583 C1396.75771249 -0.40359051 1402.71072183 -0.3934517 1408.66395495 -0.3730322 C1411.06270663 -0.36886091 1413.461491 -0.37314367 1415.86020783 -0.38672988 C1419.11089295 -0.40392827 1422.36006526 -0.39037791 1425.61069393 -0.36914349 C1426.53829473 -0.3814516 1427.46589552 -0.39375972 1428.42160543 -0.40644081 C1435.17549418 -0.31390898 1440.50077604 1.45021044 1446.11871988 5.25415033 C1452.13316067 11.56823107 1454.42413008 17.43787481 1454.37878209 26.1503858 C1454.38258776 26.94331794 1454.38639344 27.73625008 1454.39031443 28.55321047 C1454.40065288 31.22061326 1454.39671988 33.88780415 1454.39287454 36.5552215 C1454.39732572 38.48281854 1454.40263937 40.41041374 1454.40874326 42.33800626 C1454.42294812 47.64335396 1454.42458608 52.94864316 1454.42414635 58.25400716 C1454.42579238 63.97264941 1454.43885488 69.6912674 1454.45033914 75.40989679 C1454.47320508 87.91813736 1454.48111148 100.42636097 1454.48616558 112.93461961 C1454.48942077 120.74319249 1454.49594217 128.55176043 1454.50316697 136.36033052 C1454.52273503 157.97540408 1454.5392193 179.59047127 1454.54204351 201.20555395 C1454.5421846 202.24264845 1454.5421846 202.24264845 1454.54232854 203.30069436 C1454.54270702 206.10262283 1454.54307102 208.9045513 1454.54343152 211.70647978 C1454.54370324 213.81538754 1454.54397992 215.9242953 1454.54425699 218.03320307 C1454.54434501 218.73006742 1454.54443303 219.42693178 1454.54452372 220.14491324 C1454.54742876 242.03772926 1454.56952076 263.93045696 1454.60578042 285.82324213 C1454.64651508 310.41856936 1454.67018255 335.01383046 1454.67050302 359.60919404 C1454.67108798 372.63217171 1454.67960496 385.65503573 1454.70850068 398.67798418 C1454.73299141 409.76675619 1454.74031299 420.8553731 1454.72525316 431.94416483 C1454.71807488 437.60212144 1454.71898161 443.25977161 1454.74166375 448.91769403 C1454.7622353 454.09876793 1454.75967005 459.27929945 1454.73878891 464.46036736 C1454.73529056 466.3332004 1454.74021858 468.20607244 1454.75449335 470.07885434 C1454.88871167 488.90310992 1454.88871167 488.90310992 1449.11871988 496.25415033 C1441.98075508 502.93854409 1435.81738328 504.55344032 1426.23743975 504.50830066 C1425.22814972 504.51147799 1424.21885969 504.51465532 1423.17898511 504.51792892 C1419.76883196 504.52619387 1416.35885194 504.52012209 1412.94869596 504.51421255 C1410.47984467 504.51720696 1408.01099432 504.52107614 1405.54214564 504.52574489 C1400.14288558 504.53391647 1394.74367619 504.53581949 1389.34441493 504.5323106 C1381.26144409 504.52709037 1373.17851001 504.53333255 1365.0955434 504.54182408 C1351.3211704 504.55594789 1337.54680885 504.56049118 1323.77242929 504.55985254 C1309.80815757 504.55923123 1295.84389699 504.5629033 1281.879628 504.5718326 C1280.55795834 504.57267228 1280.55795834 504.57267228 1279.20958827 504.57352892 C1275.62110152 504.57582049 1272.03261478 504.57813884 1268.44412807 504.58049222 C1230.9809888 504.60502061 1193.51785406 504.61516062 1156.05470768 504.62001937 C1152.02033786 504.62054306 1147.98596805 504.6210689 1143.95159823 504.62159604 C1142.44994726 504.62178963 1142.44994726 504.62178963 1140.9179599 504.62198713 C1118.74785571 504.62489099 1096.5777528 504.63104849 1074.40764946 504.63769335 C1065.28287552 504.64041676 1056.15810155 504.6430478 1047.03332758 504.645679 C1046.02516036 504.64596991 1045.01699313 504.64626082 1043.97827539 504.64656055 C986.19259068 504.66318688 928.40690658 504.67504139 870.62121946 504.67747396 C868.45795312 504.67756859 866.29468679 504.6776636 864.13142045 504.677759 C854.36413101 504.67818675 844.59684157 504.67859212 834.82955212 504.67899736 C830.47393887 504.67917895 826.11832563 504.67936385 821.76271238 504.67954942 C819.58264747 504.67964144 817.40258256 504.67973184 815.22251766 504.67982061 C746.2804346 504.6826353 677.33838077 504.70436508 608.39630777 504.74121088 C556.99198455 504.76867838 505.58766693 504.79456805 454.18333608 504.80115598 C453.14896697 504.80128942 452.11459785 504.80142286 451.04888422 504.80156034 C428.34378201 504.80443243 405.63867992 504.80584989 382.93357753 504.80591855 C374.80958184 504.80595824 366.68558614 504.80611519 358.56159045 504.80633307 C356.54048328 504.80638672 354.5193761 504.80643483 352.49826893 504.8064774 C320.27150679 504.80722137 288.04477344 504.82289988 255.8180203 504.8460887 C223.36551174 504.86933715 190.91304027 504.8766001 158.46052553 504.86190783 C153.97862276 504.85988008 149.49671994 504.85802616 145.01481706 504.8562755 C144.13622029 504.85592544 143.25762351 504.85557539 142.35240259 504.85521473 C128.42627375 504.85012299 114.50021157 504.86184176 100.57409646 504.88052005 C86.88881469 504.89852625 73.20362905 504.89876573 59.51834729 504.87995773 C51.48978333 504.86945956 43.46150627 504.87269731 35.43296789 504.89607649 C29.47972726 504.91189117 23.52671792 504.90175237 17.5734848 504.88133286 C15.17473313 504.87716157 12.77594875 504.88144433 10.37723192 504.89503055 C7.1265468 504.91222893 3.87737449 504.89867857 0.62674582 504.87744415 C-0.30085498 504.88975226 -1.22845577 504.90206038 -2.18416568 504.91474147 C-8.93805443 504.82220964 -14.26333629 503.05809022 -19.88128012 499.25415033 C-25.89572092 492.94006959 -28.18669033 487.07042585 -28.14134234 478.35791487 C-28.14514801 477.56498272 -28.14895368 476.77205058 -28.15287468 475.95509019 C-28.16321313 473.2876874 -28.15928013 470.62049651 -28.15543479 467.95307916 C-28.15988597 466.02548213 -28.16519962 464.09788692 -28.17130351 462.1702944 C-28.18550837 456.8649467 -28.18714633 451.5596575 -28.1867066 446.2542935 C-28.18835262 440.53565125 -28.20141513 434.81703326 -28.21289939 429.09840387 C-28.23576533 416.59016331 -28.24367172 404.08193969 -28.24872583 391.57368106 C-28.25198102 383.76510818 -28.25850242 375.95654023 -28.26572722 368.14797014 C-28.28529528 346.53289658 -28.30177955 324.91782939 -28.30460376 303.30274671 C-28.30469782 302.61135038 -28.30479188 301.91995404 -28.30488879 301.2076063 C-28.30526727 298.40567783 -28.30563127 295.60374936 -28.30599177 292.80182089 C-28.30626349 290.69291312 -28.30654017 288.58400536 -28.30681723 286.4750976 C-28.30690526 285.77823324 -28.30699328 285.08136888 -28.30708397 284.36338742 C-28.30998901 262.4705714 -28.33208101 240.5778437 -28.36834067 218.68505853 C-28.40907533 194.0897313 -28.4327428 169.4944702 -28.43306327 144.89910662 C-28.43364823 131.87612895 -28.44216521 118.85326493 -28.47106093 105.83031648 C-28.49555166 94.74154447 -28.50287324 83.65292756 -28.48781341 72.56413583 C-28.48063513 66.90617922 -28.48154185 61.24852905 -28.504224 55.59060663 C-28.52479555 50.40953273 -28.5222303 45.22900121 -28.50134916 40.0479333 C-28.49785081 38.17510026 -28.50277882 36.30222823 -28.5170536 34.42944632 C-28.65127191 15.60519074 -28.65127191 15.60519074 -22.88128012 8.25415033 C-15.74331533 1.56975657 -9.57994353 -0.04513965 0 0 Z M-16.88128012 11.25415033 C-17.39288701 11.73541681 -17.9044939 12.21668328 -18.43160403 12.71253359 C-24.0403411 19.4491104 -22.5663059 29.56765984 -22.50946921 37.8155517 C-22.51451574 39.73479351 -22.52174539 41.65403062 -22.53096735 43.57325691 C-22.54990128 48.84162755 -22.53764922 54.10953419 -22.52024442 59.37789315 C-22.50687967 65.06169187 -22.52230433 70.74542229 -22.53406638 76.42921442 C-22.55245391 87.56155351 -22.54392313 98.69371718 -22.52597816 109.82605082 C-22.51195756 118.87281091 -22.5080582 127.91952336 -22.51142043 136.96629328 C-22.51189787 138.25344255 -22.51237531 139.54059182 -22.51286722 140.86674562 C-22.51389354 143.48149251 -22.5149489 146.09623939 -22.51603299 148.71098626 C-22.52486125 172.53536024 -22.50620113 196.35963666 -22.47550275 220.18398791 C-22.44764238 241.92957662 -22.44267869 263.67505352 -22.45769614 285.42065424 C-22.46151862 290.98916359 -22.46531343 296.55767296 -22.46886653 302.1261825 C-22.46930434 302.8117468 -22.46974216 303.49731109 -22.47019324 304.20365007 C-22.4814347 322.3779315 -22.47401009 340.55220165 -22.46098578 358.7264809 C-22.45914137 361.33165639 -22.45730665 363.93683188 -22.45548171 366.54200739 C-22.45456962 367.82383306 -22.45365753 369.10565874 -22.4527178 370.42632762 C-22.44710969 379.46313763 -22.45042215 388.49991936 -22.45702666 397.53672785 C-22.46475482 408.54826599 -22.4580258 419.55968391 -22.43285162 430.57119781 C-22.42034469 436.19039391 -22.41422466 441.80940274 -22.42539328 447.42860597 C-22.43542282 452.5717872 -22.42700317 457.7145947 -22.4038121 462.85773039 C-22.39864639 464.7189878 -22.40022619 466.58027861 -22.40920676 468.44152153 C-22.42039902 470.97147375 -22.4069676 473.50016176 -22.387438 476.03003687 C-22.39651682 476.75275461 -22.40559563 477.47547235 -22.41494957 478.22009063 C-22.33318358 483.65348949 -20.80429129 487.7613872 -17.88128012 492.25415033 C-12.57020571 497.29967102 -8.40455926 498.55223746 -1.18948096 498.50024599 C-0.01461964 498.50370722 -0.01461964 498.50370722 1.18397625 498.50723838 C3.82309557 498.51255505 6.46197373 498.50354248 9.10108072 498.49465936 C11.00145667 498.49553388 12.90183239 498.49728711 14.80220681 498.49984735 C20.04714857 498.50434705 25.29200914 498.49628774 30.53694057 498.48629579 C36.27118172 498.47758618 42.0054189 498.48048344 47.73966485 498.48193163 C58.87981222 498.48299664 70.01992746 498.47374552 81.16006656 498.46092897 C94.04098155 498.44655212 106.92187712 498.44494074 119.80280191 498.44335932 C153.82477967 498.43285046 187.84675025 498.40492835 221.86871988 498.37915033 C297.85121988 498.33790033 373.83371988 498.29665033 452.11871988 498.25415033 C452.11871988 335.89415033 452.11871988 173.53415033 452.11871988 6.25415033 C376.21871988 6.15102533 300.31871988 6.04790033 222.11871988 5.94165033 C186.12680581 5.8733703 186.12680581 5.8733703 149.40778238 5.80371088 C127.96051855 5.7869921 127.96051855 5.7869921 106.51325113 5.7769317 C96.93604061 5.77226016 87.35897514 5.75388199 77.78180581 5.72627252 C66.74246049 5.69449476 55.70325479 5.67995911 44.66386336 5.68692558 C39.01405527 5.68994389 33.36455941 5.68508548 27.71480829 5.65807468 C22.60798128 5.63380739 17.50168835 5.63249076 12.3948372 5.64964479 C10.54677607 5.65176895 8.69868193 5.64539351 6.85068589 5.62973744 C-6.11729008 5.06738514 -6.11729008 5.06738514 -16.88128012 11.25415033 Z M458.11871988 6.25415033 C458.11871988 168.61415033 458.11871988 330.97415033 458.11871988 498.25415033 C627.41395046 498.36894105 627.41395046 498.36894105 796.70918828 498.44681019 C821.95457364 498.45522292 847.1999589 498.46386058 872.44534398 498.47306735 C874.66605703 498.47387493 876.88677009 498.47467564 879.10748315 498.47547469 C913.11595305 498.48773699 947.12441721 498.50334534 981.13288003 498.52880853 C981.86433142 498.52935613 982.59578281 498.52990372 983.34939939 498.53046791 C995.14270922 498.5393175 1006.93601882 498.5484519 1018.7293284 498.55762409 C1052.69392466 498.58403557 1086.65851653 498.60834419 1120.62312204 498.6187095 C1121.321445 498.61892364 1122.01976796 498.61913779 1122.73925223 498.61935841 C1138.06842515 498.62402126 1153.39759812 498.62760077 1168.72677153 498.63015426 C1174.89453546 498.63120076 1181.06229937 498.63240324 1187.23006326 498.6336593 C1188.2426212 498.63385987 1188.2426212 498.63385987 1189.27563485 498.63406448 C1211.0323903 498.63845158 1232.78911308 498.65554032 1254.54585534 498.67927916 C1277.06805111 498.70379352 1299.59021559 498.71421152 1322.11242509 498.70815584 C1335.10378799 498.70510636 1348.09503249 498.71328829 1361.08637409 498.7373405 C1369.75625577 498.75229974 1378.42605959 498.75283349 1387.09594657 498.74147759 C1392.04129555 498.73541783 1396.98642005 498.73578173 1401.93174529 498.75368306 C1406.42848107 498.76983742 1410.92481663 498.76766163 1415.42154607 498.75071023 C1417.04033315 498.74784743 1418.65914939 498.75172828 1420.27789912 498.76309131 C1431.79277005 498.88102438 1431.79277005 498.88102438 1442.11871988 494.25415033 C1447.37267493 488.86193331 1448.41719344 483.73638994 1448.37878209 476.39918035 C1448.38258776 475.61071414 1448.38639344 474.82224793 1448.39031443 474.0098888 C1448.40065232 471.3576972 1448.39672 468.70571874 1448.39287454 466.05351251 C1448.39732574 464.13686448 1448.40263939 462.22021828 1448.40874326 460.3035748 C1448.42294766 455.0285705 1448.42458609 449.75362506 1448.42414635 444.47860438 C1448.42579239 438.79272045 1448.43885485 433.10686092 1448.45033914 427.42098993 C1448.47320393 414.98519539 1448.48111119 402.54941791 1448.48616558 390.1136052 C1448.48942058 382.35128058 1448.49594182 374.58896093 1448.50316697 366.82663912 C1448.52273404 345.34195237 1448.53921918 323.85727242 1448.54204351 302.37257665 C1448.54213757 301.68537846 1448.54223163 300.99818027 1448.54232854 300.29015789 C1448.54270702 297.50522637 1448.54307102 294.72029486 1448.54343152 291.93536335 C1448.54370324 289.8392331 1448.54397992 287.74310285 1448.54425699 285.6469726 C1448.54438902 284.60801057 1448.54438902 284.60801057 1448.54452372 283.54805942 C1448.54742944 261.78281346 1448.56952796 240.01765629 1448.60578042 218.25244135 C1448.64650285 193.80289318 1448.67018245 169.35341636 1448.67050302 144.90383077 C1448.67108821 131.95692883 1448.67962005 119.01014118 1448.70850068 106.0632686 C1448.73297548 95.04068116 1448.74032374 84.01824969 1448.72525316 72.99564245 C1448.7180686 67.37033727 1448.71900853 61.74534035 1448.74166375 56.12006944 C1448.76220207 50.97117283 1448.75970137 45.82282248 1448.73878891 40.67393211 C1448.73528419 38.81055584 1448.7402454 36.94714057 1448.75449335 35.08381548 C1449.19912034 23.1738564 1449.19912034 23.1738564 1444.49603403 12.58892846 C1439.19302066 7.44968971 1434.66876 6.12903181 1427.48798382 6.12995183 C1426.8063885 6.12867375 1426.12479317 6.12739566 1425.42254344 6.12607885 C1423.11734668 6.12299361 1420.81221725 6.12709228 1418.50702268 6.1311025 C1416.83902824 6.13036341 1415.17103396 6.12918541 1413.50304011 6.127606 C1408.88577063 6.12452196 1404.26852299 6.12772451 1399.65125513 6.13188414 C1394.64084912 6.13530546 1389.63044543 6.13295001 1384.62003899 6.13130665 C1375.8275906 6.12922822 1367.03514896 6.13088466 1358.24270135 6.13494486 C1345.16853342 6.14096556 1332.09436977 6.141282 1319.02020071 6.14040287 C1297.03023564 6.13908712 1275.04027311 6.14243012 1253.050309 6.14842027 C1231.26835568 6.15433961 1209.48640359 6.15819474 1187.70444947 6.15927309 C1186.69033504 6.15932471 1186.69033504 6.15932471 1185.65573344 6.15937737 C1179.48095859 6.15969056 1173.30618374 6.15997825 1167.13140889 6.16023534 C1151.78054624 6.1608748 1136.42968362 6.16183416 1121.078821 6.16301054 C1120.37972098 6.16306386 1119.68062095 6.16311717 1118.96033608 6.16317211 C1084.94029493 6.16579461 1050.92025459 6.17210257 1016.90021402 6.17871088 C1005.09221028 6.18100251 993.28420654 6.18327786 981.47620279 6.18548578 C980.74388468 6.18562273 980.01156657 6.18575968 979.257057 6.18590078 C945.22700504 6.19224235 911.19695295 6.19595886 877.16690055 6.1990186 C874.9407865 6.19921917 872.71467245 6.19942147 870.4885584 6.19962434 C844.83636748 6.20196118 819.18417653 6.20413848 793.53198559 6.20626929 C681.72756214 6.21566173 569.92314295 6.23573081 458.11871988 6.25415033 Z " fill="#959BA7" transform="translate(101.88128012418747,37.745849668979645)"></path><path d="M0 0 C1.21526367 0.4340918 1.21526367 0.4340918 2.45507812 0.87695312 C19.07993557 6.99916412 33.27657059 15.91480154 47 27 C46.41605265 30.54815458 45.14990481 32.23629132 42.64526367 34.7746582 C41.9375029 35.49833084 41.22974213 36.22200348 40.50053406 36.96760559 C39.73078751 37.73755356 38.96104095 38.50750153 38.16796875 39.30078125 C37.37981277 40.09655075 36.5916568 40.89232025 35.77961731 41.71220398 C34.11143834 43.3911871 32.43926479 45.06620937 30.76342773 46.73754883 C28.19389135 49.30611108 25.64641578 51.89525083 23.09960938 54.48632812 C21.4778646 56.11327814 19.85485959 57.73897313 18.23046875 59.36328125 C17.46679489 60.14335037 16.70312103 60.92341949 15.91630554 61.72712708 C15.19908829 62.43503891 14.48187103 63.14295074 13.74291992 63.87231445 C13.11528244 64.50200638 12.48764496 65.1316983 11.84098816 65.7804718 C10 67 10 67 7.96260071 66.81364441 C5.49728069 65.79158534 3.3161613 64.40571511 1.07617188 62.96484375 C-17.98538438 50.70394614 -39.98793452 48.09662755 -62.02734375 52.83984375 C-82.86744223 58.48198249 -99.29049324 72.22975918 -110.1796875 90.61328125 C-120.05542226 108.98723412 -122.75162527 129.02251688 -117.65625 149.14453125 C-117 152 -117 152 -117 156 C-118.27490234 157.42529297 -118.27490234 157.42529297 -120.0859375 158.7421875 C-120.76076172 159.24411621 -121.43558594 159.74604492 -122.13085938 160.26318359 C-122.87142578 160.79508301 -123.61199219 161.32698242 -124.375 161.875 C-125.93564658 163.03023648 -127.49551649 164.18652279 -129.0546875 165.34375 C-129.86776367 165.941875 -130.68083984 166.54 -131.51855469 167.15625 C-135.56440432 170.16237519 -139.53034311 173.26937175 -143.5 176.375 C-144.92692335 177.48718446 -146.35400231 178.5991693 -147.78125 179.7109375 C-148.461875 180.24170898 -149.1425 180.77248047 -149.84375 181.31933594 C-153.56008703 184.21599175 -157.28014357 187.10786601 -161 190 C-164.11691619 187.11198234 -165.48732585 183.97040463 -167 180.0625 C-167.26200195 179.39444336 -167.52400391 178.72638672 -167.79394531 178.03808594 C-170.05089117 172.13854751 -171.74895198 166.19421339 -173 160 C-173.16846436 159.29713867 -173.33692871 158.59427734 -173.51049805 157.87011719 C-175.35016837 149.39042521 -175.3378145 140.9664045 -175.31567383 132.33154297 C-175.31252307 129.76876872 -175.33601151 127.20716289 -175.36132812 124.64453125 C-175.4013876 114.36760271 -174.54515878 105.00558347 -172 95 C-171.79157471 94.17177734 -171.58314941 93.34355469 -171.3684082 92.49023438 C-161.84107144 57.5342179 -137.7777905 28.78583055 -106.87158203 10.62426758 C-76.26443782 -6.51695828 -33.44839994 -12.07779947 0 0 Z " fill="#EA4436" transform="translate(361,160)"></path><path d="M0 0 C41.58 0 83.16 0 126 0 C127.46966985 5.87867939 128.32617251 10.57244377 128.37109375 16.46875 C128.38229752 17.25831589 128.39350128 18.04788177 128.40504456 18.8613739 C128.43223329 21.4078024 128.43869573 23.95343255 128.4375 26.5 C128.43790283 27.37137604 128.43830566 28.24275208 128.4387207 29.14053345 C128.33662055 67.46461791 114.89893255 99.00310922 89 127 C83.93725012 125.44223081 80.47896166 122.34831393 76.5 119 C75.07145634 117.81762707 73.64175328 116.63665362 72.2109375 115.45703125 C71.50163086 114.87131348 70.79232422 114.2855957 70.06152344 113.68212891 C67.12882223 111.28915031 64.1366716 108.97981025 61.125 106.6875 C55.68450258 102.53750759 50.32190688 98.30077351 45 94 C47.36366096 91.56880587 49.64122499 89.26436053 52.375 87.25 C62.71467308 78.38742307 67.79842087 65.6047374 72 53 C48.24 53 24.48 53 0 53 C0 35.51 0 18.02 0 0 Z " fill="#4285F2" transform="translate(320,265)"></path><path d="M0 0 C3.04860014 1.01620005 3.86666922 1.77391571 6 4 C6.66 4.33 7.32 4.66 8 5 C8 5.66 8 6.32 8 7 C9.32 7.33 10.64 7.66 12 8 C12 8.66 12 9.32 12 10 C12.8971875 10.1546875 12.8971875 10.1546875 13.8125 10.3125 C16.30869017 11.09701691 17.25731865 12.09889308 19 14 C19.66 14.33 20.32 14.66 21 15 C21 15.66 21 16.32 21 17 C22.32 17.33 23.64 17.66 25 18 C25 18.66 25 19.32 25 20 C27.475 20.99 27.475 20.99 30 22 C30 22.66 30 23.32 30 24 C31.32 24.33 32.64 24.66 34 25 C34 25.66 34 26.32 34 27 C34.639375 27.12375 35.27875 27.2475 35.9375 27.375 C36.9584375 27.684375 36.9584375 27.684375 38 28 C38.495 28.99 38.495 28.99 39 30 C41.01669827 31.13350534 41.01669827 31.13350534 43 32 C43 32.66 43 33.32 43 34 C43.66 34 44.32 34 45 34 C44.86722656 34.64066406 44.73445313 35.28132813 44.59765625 35.94140625 C44.42105469 36.80636719 44.24445313 37.67132813 44.0625 38.5625 C43.88847656 39.40941406 43.71445313 40.25632812 43.53515625 41.12890625 C41.12293375 54.07039195 41.11530446 66.39516066 44.34375 79.14453125 C45 82 45 82 45 86 C43.72509766 87.42529297 43.72509766 87.42529297 41.9140625 88.7421875 C41.23923828 89.24411621 40.56441406 89.74604492 39.86914062 90.26318359 C39.12857422 90.79508301 38.38800781 91.32698242 37.625 91.875 C36.06435342 93.03023648 34.50448351 94.18652279 32.9453125 95.34375 C32.13223633 95.941875 31.31916016 96.54 30.48144531 97.15625 C26.43559568 100.16237519 22.46965689 103.26937175 18.5 106.375 C17.07307665 107.48718446 15.64599769 108.5991693 14.21875 109.7109375 C13.538125 110.24170898 12.8575 110.77248047 12.15625 111.31933594 C8.43991297 114.21599175 4.71985643 117.10786601 1 120 C-2.11691619 117.11198234 -3.48732585 113.97040463 -5 110.0625 C-5.26200195 109.39444336 -5.52400391 108.72638672 -5.79394531 108.03808594 C-8.05089117 102.13854751 -9.74895198 96.19421339 -11 90 C-11.16846436 89.29713867 -11.33692871 88.59427734 -11.51049805 87.87011719 C-13.35016837 79.39042521 -13.3378145 70.9664045 -13.31567383 62.33154297 C-13.31252307 59.76876872 -13.33601151 57.20716289 -13.36132812 54.64453125 C-13.41510952 40.99641209 -11.55405806 28.46237444 -7.0625 15.5 C-6.82337891 14.7678125 -6.58425781 14.035625 -6.33789062 13.28125 C-4.71390616 8.48214022 -2.63607705 4.32703792 0 0 Z " fill="#FABC06" transform="translate(199,230)"></path><path d="M0 0 C4.27450076 9.1822609 7.63888342 18.65854749 10.6875 28.3125 C11.541486 32.05935986 11.541486 32.05935986 14 33 C16.45529567 33.1200879 18.88722525 33.1855051 21.34375 33.2109375 C22.83204245 33.23899547 24.32032357 33.26765986 25.80859375 33.296875 C28.159015 33.33822272 30.50922223 33.37510304 32.85986328 33.40136719 C35.12577101 33.42889026 37.3907118 33.47474637 39.65625 33.5234375 C40.36148804 33.52669037 41.06672607 33.52994324 41.79333496 33.53329468 C43.77539062 33.58349609 43.77539062 33.58349609 47 34 C49.17504088 37.26256131 49.70727201 38.21468019 49 42 C47.08143854 43.86975862 45.35718648 45.29490177 43.1875 46.8125 C42.60379639 47.23901855 42.02009277 47.66553711 41.41870117 48.10498047 C40.21337195 48.98345459 39.00309473 49.85517788 37.78808594 50.72021484 C36.09337044 51.93317206 34.42265711 53.17225725 32.7578125 54.42578125 C25.29251776 60 25.29251776 60 23 60 C22.42705193 67.42146796 24.49307867 73.25535436 27 80.1875 C27.75691217 82.30352979 28.50717956 84.42195109 29.25 86.54296875 C29.58515625 87.47133545 29.9203125 88.39970215 30.265625 89.35620117 C31.0178739 92.06434724 31.22063945 94.20513368 31 97 C29.875 98.875 29.875 98.875 28 100 C21.54097259 100 17.29868864 95.89213922 12.4375 92.125 C10.77096254 90.85489062 9.10303493 89.5866028 7.43359375 88.3203125 C6.70197021 87.75586426 5.97034668 87.19141602 5.21655273 86.60986328 C0.79852508 83.08737712 0.79852508 83.08737712 -4.53320312 82.12158203 C-7.26802214 83.09544177 -9.16093893 84.2966192 -11.46875 86.0546875 C-12.28730469 86.66957031 -13.10585937 87.28445312 -13.94921875 87.91796875 C-14.79097656 88.56378906 -15.63273437 89.20960938 -16.5 89.875 C-18.17560809 91.14517765 -19.85264926 92.41346742 -21.53125 93.6796875 C-22.26923828 94.24413574 -23.00722656 94.80858398 -23.76757812 95.39013672 C-30.2342318 100.05342569 -30.2342318 100.05342569 -33.6875 99.8125 C-36 99 -36 99 -38 97 C-37.66750491 89.43786801 -35.00124727 82.7431603 -32.43945312 75.68945312 C-29.76056158 68.48780845 -29.76056158 68.48780845 -30 61 C-32.52207335 58.33848604 -35.43594129 56.42817764 -38.5 54.4375 C-40.09418597 53.35350547 -41.68793885 52.26887372 -43.28125 51.18359375 C-45.63990906 49.58994458 -47.99940467 48.0003909 -50.37890625 46.43798828 C-51.10980469 45.93380371 -51.84070312 45.42961914 -52.59375 44.91015625 C-53.25052734 44.46937744 -53.90730469 44.02859863 -54.58398438 43.57446289 C-56 42 -56 42 -56.40039062 39.50561523 C-56 37 -56 37 -54.99682617 35.21948242 C-51.86938467 33.30952151 -48.61258412 33.51862346 -45.05078125 33.48828125 C-44.27816452 33.47033005 -43.50554779 33.45237885 -42.70951843 33.43388367 C-40.243901 33.37973896 -37.77847757 33.34587269 -35.3125 33.3125 C-33.63994694 33.27933048 -31.96741949 33.24484115 -30.29492188 33.20898438 C-26.1967545 33.12401051 -22.09864506 33.0572198 -18 33 C-17.81824219 32.32195312 -17.63648438 31.64390625 -17.44921875 30.9453125 C-15.73464828 24.59700542 -13.94237289 18.28236231 -12 12 C-11.7525 11.16855469 -11.505 10.33710937 -11.25 9.48046875 C-11.0025 8.68253906 -10.755 7.88460937 -10.5 7.0625 C-10.2834375 6.35222656 -10.066875 5.64195313 -9.84375 4.91015625 C-7.66655111 -0.01878013 -5.15253495 -0.34350233 0 0 Z " fill="#F6BC06" transform="translate(1162,105)"></path><path d="M0 0 C4.27450076 9.1822609 7.63888342 18.65854749 10.6875 28.3125 C11.541486 32.05935986 11.541486 32.05935986 14 33 C16.45529567 33.1200879 18.88722525 33.1855051 21.34375 33.2109375 C22.83204245 33.23899547 24.32032357 33.26765986 25.80859375 33.296875 C28.159015 33.33822272 30.50922223 33.37510304 32.85986328 33.40136719 C35.12577101 33.42889026 37.3907118 33.47474637 39.65625 33.5234375 C40.36148804 33.52669037 41.06672607 33.52994324 41.79333496 33.53329468 C43.77539062 33.58349609 43.77539062 33.58349609 47 34 C49.17504088 37.26256131 49.70727201 38.21468019 49 42 C47.08143854 43.86975862 45.35718648 45.29490177 43.1875 46.8125 C42.60379639 47.23901855 42.02009277 47.66553711 41.41870117 48.10498047 C40.21337195 48.98345459 39.00309473 49.85517788 37.78808594 50.72021484 C36.09337044 51.93317206 34.42265711 53.17225725 32.7578125 54.42578125 C25.29251776 60 25.29251776 60 23 60 C22.42705193 67.42146796 24.49307867 73.25535436 27 80.1875 C27.75691217 82.30352979 28.50717956 84.42195109 29.25 86.54296875 C29.58515625 87.47133545 29.9203125 88.39970215 30.265625 89.35620117 C31.0178739 92.06434724 31.22063945 94.20513368 31 97 C29.875 98.875 29.875 98.875 28 100 C21.54097259 100 17.29868864 95.89213922 12.4375 92.125 C10.77096254 90.85489062 9.10303493 89.5866028 7.43359375 88.3203125 C6.70197021 87.75586426 5.97034668 87.19141602 5.21655273 86.60986328 C0.79852508 83.08737712 0.79852508 83.08737712 -4.53320312 82.12158203 C-7.26802214 83.09544177 -9.16093893 84.2966192 -11.46875 86.0546875 C-12.28730469 86.66957031 -13.10585937 87.28445312 -13.94921875 87.91796875 C-14.79097656 88.56378906 -15.63273437 89.20960938 -16.5 89.875 C-18.17560809 91.14517765 -19.85264926 92.41346742 -21.53125 93.6796875 C-22.26923828 94.24413574 -23.00722656 94.80858398 -23.76757812 95.39013672 C-30.2342318 100.05342569 -30.2342318 100.05342569 -33.6875 99.8125 C-36 99 -36 99 -38 97 C-37.66750491 89.43786801 -35.00124727 82.7431603 -32.43945312 75.68945312 C-29.76056158 68.48780845 -29.76056158 68.48780845 -30 61 C-32.52207335 58.33848604 -35.43594129 56.42817764 -38.5 54.4375 C-40.09418597 53.35350547 -41.68793885 52.26887372 -43.28125 51.18359375 C-45.63990906 49.58994458 -47.99940467 48.0003909 -50.37890625 46.43798828 C-51.10980469 45.93380371 -51.84070313 45.42961914 -52.59375 44.91015625 C-53.25052734 44.46937744 -53.90730469 44.02859863 -54.58398438 43.57446289 C-56 42 -56 42 -56.40039062 39.50561523 C-56 37 -56 37 -54.99682617 35.21948242 C-51.86938467 33.30952151 -48.61258412 33.51862346 -45.05078125 33.48828125 C-44.27816452 33.47033005 -43.50554779 33.45237885 -42.70951843 33.43388367 C-40.243901 33.37973896 -37.77847757 33.34587269 -35.3125 33.3125 C-33.63994694 33.27933048 -31.96741949 33.24484115 -30.29492188 33.20898438 C-26.1967545 33.12401051 -22.09864506 33.0572198 -18 33 C-17.81824219 32.32195312 -17.63648438 31.64390625 -17.44921875 30.9453125 C-15.73464828 24.59700542 -13.94237289 18.28236231 -12 12 C-11.7525 11.16855469 -11.505 10.33710937 -11.25 9.48046875 C-11.0025 8.68253906 -10.755 7.88460937 -10.5 7.0625 C-10.2834375 6.35222656 -10.066875 5.64195313 -9.84375 4.91015625 C-7.66655111 -0.01878013 -5.15253495 -0.34350233 0 0 Z " fill="#F6BC06" transform="translate(1048,105)"></path><path d="M0 0 C4.27450076 9.1822609 7.63888342 18.65854749 10.6875 28.3125 C11.541486 32.05935986 11.541486 32.05935986 14 33 C16.45529567 33.1200879 18.88722525 33.1855051 21.34375 33.2109375 C22.83204245 33.23899547 24.32032357 33.26765986 25.80859375 33.296875 C28.159015 33.33822272 30.50922223 33.37510304 32.85986328 33.40136719 C35.12577101 33.42889026 37.3907118 33.47474637 39.65625 33.5234375 C40.36148804 33.52669037 41.06672607 33.52994324 41.79333496 33.53329468 C43.77539062 33.58349609 43.77539062 33.58349609 47 34 C49.17504088 37.26256131 49.70727201 38.21468019 49 42 C47.08143854 43.86975862 45.35718648 45.29490177 43.1875 46.8125 C42.60379639 47.23901855 42.02009277 47.66553711 41.41870117 48.10498047 C40.21337195 48.98345459 39.00309473 49.85517788 37.78808594 50.72021484 C36.09337044 51.93317206 34.42265711 53.17225725 32.7578125 54.42578125 C25.29251776 60 25.29251776 60 23 60 C22.42705193 67.42146796 24.49307867 73.25535436 27 80.1875 C27.75691217 82.30352979 28.50717956 84.42195109 29.25 86.54296875 C29.58515625 87.47133545 29.9203125 88.39970215 30.265625 89.35620117 C31.0178739 92.06434724 31.22063945 94.20513368 31 97 C29.875 98.875 29.875 98.875 28 100 C21.54097259 100 17.29868864 95.89213922 12.4375 92.125 C10.77096254 90.85489062 9.10303493 89.5866028 7.43359375 88.3203125 C6.70197021 87.75586426 5.97034668 87.19141602 5.21655273 86.60986328 C0.79852508 83.08737712 0.79852508 83.08737712 -4.53320312 82.12158203 C-7.26802214 83.09544177 -9.16093893 84.2966192 -11.46875 86.0546875 C-12.28730469 86.66957031 -13.10585938 87.28445312 -13.94921875 87.91796875 C-14.79097656 88.56378906 -15.63273438 89.20960938 -16.5 89.875 C-18.17560809 91.14517765 -19.85264926 92.41346742 -21.53125 93.6796875 C-22.26923828 94.24413574 -23.00722656 94.80858398 -23.76757812 95.39013672 C-30.2342318 100.05342569 -30.2342318 100.05342569 -33.6875 99.8125 C-36 99 -36 99 -38 97 C-37.66750491 89.43786801 -35.00124727 82.7431603 -32.43945312 75.68945312 C-29.76056158 68.48780845 -29.76056158 68.48780845 -30 61 C-32.52207335 58.33848604 -35.43594129 56.42817764 -38.5 54.4375 C-40.09418597 53.35350547 -41.68793885 52.26887372 -43.28125 51.18359375 C-45.63990906 49.58994458 -47.99940467 48.0003909 -50.37890625 46.43798828 C-51.10980469 45.93380371 -51.84070313 45.42961914 -52.59375 44.91015625 C-53.25052734 44.46937744 -53.90730469 44.02859863 -54.58398438 43.57446289 C-56 42 -56 42 -56.40039062 39.50561523 C-56 37 -56 37 -54.99682617 35.21948242 C-51.86938467 33.30952151 -48.61258412 33.51862346 -45.05078125 33.48828125 C-44.27816452 33.47033005 -43.50554779 33.45237885 -42.70951843 33.43388367 C-40.243901 33.37973896 -37.77847757 33.34587269 -35.3125 33.3125 C-33.63994694 33.27933048 -31.96741949 33.24484115 -30.29492188 33.20898438 C-26.1967545 33.12401051 -22.09864506 33.0572198 -18 33 C-17.81824219 32.32195312 -17.63648438 31.64390625 -17.44921875 30.9453125 C-15.73464828 24.59700542 -13.94237289 18.28236231 -12 12 C-11.7525 11.16855469 -11.505 10.33710937 -11.25 9.48046875 C-11.0025 8.68253906 -10.755 7.88460937 -10.5 7.0625 C-10.2834375 6.35222656 -10.066875 5.64195313 -9.84375 4.91015625 C-7.66655111 -0.01878013 -5.15253495 -0.34350233 0 0 Z " fill="#F6BC06" transform="translate(934,105)"></path><path d="M0 0 C4.27450076 9.1822609 7.63888342 18.65854749 10.6875 28.3125 C11.541486 32.05935986 11.541486 32.05935986 14 33 C16.45529567 33.1200879 18.88722525 33.1855051 21.34375 33.2109375 C22.83204245 33.23899547 24.32032357 33.26765986 25.80859375 33.296875 C28.159015 33.33822272 30.50922223 33.37510304 32.85986328 33.40136719 C35.12577101 33.42889026 37.3907118 33.47474637 39.65625 33.5234375 C40.36148804 33.52669037 41.06672607 33.52994324 41.79333496 33.53329468 C43.77539062 33.58349609 43.77539062 33.58349609 47 34 C49.17504088 37.26256131 49.70727201 38.21468019 49 42 C47.08143854 43.86975862 45.35718648 45.29490177 43.1875 46.8125 C42.60379639 47.23901855 42.02009277 47.66553711 41.41870117 48.10498047 C40.21337195 48.98345459 39.00309473 49.85517788 37.78808594 50.72021484 C36.09337044 51.93317206 34.42265711 53.17225725 32.7578125 54.42578125 C25.29251776 60 25.29251776 60 23 60 C22.42705193 67.42146796 24.49307867 73.25535436 27 80.1875 C27.75691217 82.30352979 28.50717956 84.42195109 29.25 86.54296875 C29.58515625 87.47133545 29.9203125 88.39970215 30.265625 89.35620117 C31.0178739 92.06434724 31.22063945 94.20513368 31 97 C29.875 98.875 29.875 98.875 28 100 C21.54097259 100 17.29868864 95.89213922 12.4375 92.125 C10.77096254 90.85489062 9.10303493 89.5866028 7.43359375 88.3203125 C6.70197021 87.75586426 5.97034668 87.19141602 5.21655273 86.60986328 C0.79852508 83.08737712 0.79852508 83.08737712 -4.53320312 82.12158203 C-7.26802214 83.09544177 -9.16093893 84.2966192 -11.46875 86.0546875 C-12.28730469 86.66957031 -13.10585938 87.28445312 -13.94921875 87.91796875 C-14.79097656 88.56378906 -15.63273438 89.20960938 -16.5 89.875 C-18.17560809 91.14517765 -19.85264926 92.41346742 -21.53125 93.6796875 C-22.26923828 94.24413574 -23.00722656 94.80858398 -23.76757812 95.39013672 C-30.2342318 100.05342569 -30.2342318 100.05342569 -33.6875 99.8125 C-36 99 -36 99 -38 97 C-37.66750491 89.43786801 -35.00124727 82.7431603 -32.43945312 75.68945312 C-29.76056158 68.48780845 -29.76056158 68.48780845 -30 61 C-32.52207335 58.33848604 -35.43594129 56.42817764 -38.5 54.4375 C-40.09418597 53.35350547 -41.68793885 52.26887372 -43.28125 51.18359375 C-45.63990906 49.58994458 -47.99940467 48.0003909 -50.37890625 46.43798828 C-51.10980469 45.93380371 -51.84070313 45.42961914 -52.59375 44.91015625 C-53.25052734 44.46937744 -53.90730469 44.02859863 -54.58398438 43.57446289 C-56 42 -56 42 -56.40039062 39.50561523 C-56 37 -56 37 -54.99682617 35.21948242 C-51.86938467 33.30952151 -48.61258412 33.51862346 -45.05078125 33.48828125 C-44.27816452 33.47033005 -43.50554779 33.45237885 -42.70951843 33.43388367 C-40.243901 33.37973896 -37.77847757 33.34587269 -35.3125 33.3125 C-33.63994694 33.27933048 -31.96741949 33.24484115 -30.29492188 33.20898438 C-26.1967545 33.12401051 -22.09864506 33.0572198 -18 33 C-17.81824219 32.32195312 -17.63648438 31.64390625 -17.44921875 30.9453125 C-15.73464828 24.59700542 -13.94237289 18.28236231 -12 12 C-11.7525 11.16855469 -11.505 10.33710937 -11.25 9.48046875 C-11.0025 8.68253906 -10.755 7.88460937 -10.5 7.0625 C-10.2834375 6.35222656 -10.066875 5.64195313 -9.84375 4.91015625 C-7.66655111 -0.01878013 -5.15253495 -0.34350233 0 0 Z " fill="#F6BC06" transform="translate(820,105)"></path><path d="M0 0 C4.27450076 9.1822609 7.63888342 18.65854749 10.6875 28.3125 C11.541486 32.05935986 11.541486 32.05935986 14 33 C16.45529567 33.1200879 18.88722525 33.1855051 21.34375 33.2109375 C22.83204245 33.23899547 24.32032357 33.26765986 25.80859375 33.296875 C28.159015 33.33822272 30.50922223 33.37510304 32.85986328 33.40136719 C35.12577101 33.42889026 37.3907118 33.47474637 39.65625 33.5234375 C40.36148804 33.52669037 41.06672607 33.52994324 41.79333496 33.53329468 C43.77539062 33.58349609 43.77539062 33.58349609 47 34 C49.17504088 37.26256131 49.70727201 38.21468019 49 42 C47.08143854 43.86975862 45.35718648 45.29490177 43.1875 46.8125 C42.60379639 47.23901855 42.02009277 47.66553711 41.41870117 48.10498047 C40.21337195 48.98345459 39.00309473 49.85517788 37.78808594 50.72021484 C36.09337044 51.93317206 34.42265711 53.17225725 32.7578125 54.42578125 C25.29251776 60 25.29251776 60 23 60 C22.42705193 67.42146796 24.49307867 73.25535436 27 80.1875 C27.75691217 82.30352979 28.50717956 84.42195109 29.25 86.54296875 C29.58515625 87.47133545 29.9203125 88.39970215 30.265625 89.35620117 C31.0178739 92.06434724 31.22063945 94.20513368 31 97 C29.875 98.875 29.875 98.875 28 100 C21.54097259 100 17.29868864 95.89213922 12.4375 92.125 C10.77096254 90.85489062 9.10303493 89.5866028 7.43359375 88.3203125 C6.70197021 87.75586426 5.97034668 87.19141602 5.21655273 86.60986328 C0.79852508 83.08737712 0.79852508 83.08737712 -4.53320312 82.12158203 C-7.26802214 83.09544177 -9.16093893 84.2966192 -11.46875 86.0546875 C-12.28730469 86.66957031 -13.10585938 87.28445312 -13.94921875 87.91796875 C-14.79097656 88.56378906 -15.63273438 89.20960938 -16.5 89.875 C-18.17560809 91.14517765 -19.85264926 92.41346742 -21.53125 93.6796875 C-22.26923828 94.24413574 -23.00722656 94.80858398 -23.76757812 95.39013672 C-30.2342318 100.05342569 -30.2342318 100.05342569 -33.6875 99.8125 C-36 99 -36 99 -38 97 C-37.66750491 89.43786801 -35.00124727 82.7431603 -32.43945312 75.68945312 C-29.76056158 68.48780845 -29.76056158 68.48780845 -30 61 C-32.52207335 58.33848604 -35.43594129 56.42817764 -38.5 54.4375 C-40.09418597 53.35350547 -41.68793885 52.26887372 -43.28125 51.18359375 C-45.63990906 49.58994458 -47.99940467 48.0003909 -50.37890625 46.43798828 C-51.10980469 45.93380371 -51.84070313 45.42961914 -52.59375 44.91015625 C-53.25052734 44.46937744 -53.90730469 44.02859863 -54.58398438 43.57446289 C-56 42 -56 42 -56.40039062 39.50561523 C-56 37 -56 37 -54.99682617 35.21948242 C-51.86938467 33.30952151 -48.61258412 33.51862346 -45.05078125 33.48828125 C-44.27816452 33.47033005 -43.50554779 33.45237885 -42.70951843 33.43388367 C-40.243901 33.37973896 -37.77847757 33.34587269 -35.3125 33.3125 C-33.63994694 33.27933048 -31.96741949 33.24484115 -30.29492188 33.20898438 C-26.1967545 33.12401051 -22.09864506 33.0572198 -18 33 C-17.81824219 32.32195312 -17.63648438 31.64390625 -17.44921875 30.9453125 C-15.73464828 24.59700542 -13.94237289 18.28236231 -12 12 C-11.7525 11.16855469 -11.505 10.33710937 -11.25 9.48046875 C-11.0025 8.68253906 -10.755 7.88460937 -10.5 7.0625 C-10.2834375 6.35222656 -10.066875 5.64195313 -9.84375 4.91015625 C-7.66655111 -0.01878013 -5.15253495 -0.34350233 0 0 Z " fill="#F6BC06" transform="translate(706,105)"></path><path d="M0 0 C7.43682107 6.14546609 11.17917846 13.6601308 12.41015625 23.16796875 C12.8336246 32.25625112 10.7268005 40.02542373 5.23828125 47.3515625 C-0.84452024 53.94023592 -8.83933543 58.4010465 -17.8125 59.2734375 C-28.14174774 59.60255569 -36.70292762 57.45321945 -44.4375 50.3125 C-51.86360492 42.15925564 -54.44906657 33.32436047 -54.33984375 22.5234375 C-53.54179188 14.24938245 -50.1108593 6.99650718 -43.88671875 1.4609375 C-29.74398068 -9.49016817 -14.82883423 -9.86764984 0 0 Z " fill="#FBFBFB" transform="translate(1448,393)"></path><path d="M0 0 C6.18548934 3.16466897 9.62572719 8.36475273 12.0625 14.75 C14.98953097 25.93853258 15.53969302 44.653252 9.859375 54.89453125 C5.60288045 60.86007285 1.44891143 63.95248609 -5.8125 65.5 C-12.38932182 66.29253069 -17.34206127 65.30291464 -22.8125 61.5 C-29.10462207 55.9228918 -31.32777209 48.04528727 -32.04443359 39.84667969 C-33.38162527 14.91670237 -33.38162527 14.91670237 -26.1640625 5.3046875 C-19.12312406 -2.28968715 -9.63239875 -3.68345536 0 0 Z " fill="#040404" transform="translate(1373.8125,126.5)"></path><path d="M0 0 C3.96 0 7.92 0 12 0 C12.33 1.98 12.66 3.96 13 6 C13.42667969 5.566875 13.85335937 5.13375 14.29296875 4.6875 C19.63178502 -0.06789924 23.92982966 -0.80869055 31.00390625 -0.45703125 C36.21579991 0.33800338 38.73648307 2.66628769 42.25 6.375 C46.27318974 12.40978461 46.36511087 18.3537211 46.375 25.375 C46.39949219 26.2825 46.42398438 27.19 46.44921875 28.125 C46.47856777 34.91440666 45.22841916 40.3315288 40.65844727 45.52441406 C36.16194948 49.65298265 31.45385209 50.68769155 25.5625 51.4375 C22 51 22 51 14 46 C14 54.58 14 63.16 14 72 C9.38 72 4.76 72 0 72 C0 48.24 0 24.48 0 0 Z " fill="#050505" transform="translate(764,276)"></path><path d="M0 0 C4.62 0 9.24 0 14 0 C14 22.77 14 45.54 14 69 C10.37 69 6.74 69 3 69 C0.8125 66.5 0.8125 66.5 0 64 C-0.721875 64.61875 -1.44375 65.2375 -2.1875 65.875 C-7.22362775 69.6800743 -11.69653398 70.77083805 -18 70 C-23.36662745 68.17534667 -26.96478152 64.70824553 -30 60 C-32.23570474 54.86924709 -32.33411049 50.12270951 -32.3125 44.625 C-32.32861328 43.81289063 -32.34472656 43.00078125 -32.36132812 42.1640625 C-32.36816791 33.62800691 -30.01007064 27.15665773 -24 21 C-20.61185201 18.81119643 -17.677216 18.67188268 -13.6875 18.625 C-12.59824219 18.59664063 -11.50898437 18.56828125 -10.38671875 18.5390625 C-7 19 -7 19 0 23 C0 15.41 0 7.82 0 0 Z " fill="#020202" transform="translate(1080,257)"></path><path d="M0 0 C32.4 0 32.4 0 41 7 C45.02144697 12.36192929 44.63532693 18.58496283 44 25 C42.27189064 30.28033416 39.38876502 32.82514871 35 36 C34.34 36 33.68 36 33 36 C33.54527344 36.80743652 34.09054687 37.61487305 34.65234375 38.44677734 C36.66969201 41.43666291 38.68097549 44.43058573 40.69042969 47.42578125 C41.56181975 48.72279435 42.43486175 50.01869916 43.30957031 51.31347656 C44.56488615 53.17225489 45.81425245 55.03490761 47.0625 56.8984375 C47.45622803 57.47870697 47.84995605 58.05897644 48.25561523 58.65682983 C51 62.77225659 51 62.77225659 51 65 C45.62929188 66.2268115 40.21123123 67.26393471 35 65 C28.30511482 58.37896809 24.38469784 48.65416631 21 40 C18.69 40 16.38 40 14 40 C14 48.25 14 56.5 14 65 C9.38 65 4.76 65 0 65 C0 43.55 0 22.1 0 0 Z " fill="#030303" transform="translate(846,261)"></path><path d="M0 0 C5.42448243 3.38430099 9.5240598 8.31515935 11.375 14.4375 C12.39011855 23.21448455 13.08021668 33.36849602 7.79296875 40.84765625 C3.1997574 45.9976205 -1.81617291 49.0337546 -8.68359375 49.76171875 C-17.4022663 50.05402107 -22.6826034 48.66309722 -29.375 43.1875 C-34.4512445 36.98320116 -36.28814606 31.4044661 -36.125 23.4375 C-36.14046875 22.68210937 -36.1559375 21.92671875 -36.171875 21.1484375 C-36.1265489 14.55348983 -34.05006505 9.65024603 -30.09765625 4.4140625 C-29.39962891 3.74503906 -29.39962891 3.74503906 -28.6875 3.0625 C-28.22472656 2.60101563 -27.76195312 2.13953125 -27.28515625 1.6640625 C-20.50919761 -3.34217518 -7.565558 -3.4228641 0 0 Z " fill="#040404" transform="translate(741.625,277.5625)"></path><path d="M0 0 C4.37380729 2.19059151 6.62057572 5.48191086 8.4375 9.9375 C8.94326846 13.02587171 8.9070388 16.02964768 8.828125 19.15234375 C8.82246521 20.00808487 8.81680542 20.86382599 8.81097412 21.74549866 C8.78873507 24.45592211 8.73856425 27.16498191 8.6875 29.875 C8.66741878 31.721986 8.64917086 33.5689929 8.6328125 35.41601562 C8.58891147 39.9236957 8.51997269 44.43036733 8.4375 48.9375 C5.1375 48.9375 1.8375 48.9375 -1.5625 48.9375 C-2.2225 47.2875 -2.8825 45.6375 -3.5625 43.9375 C-4.09359375 44.28683594 -4.6246875 44.63617188 -5.171875 44.99609375 C-6.23148438 45.67865234 -6.23148438 45.67865234 -7.3125 46.375 C-8.00859375 46.82746094 -8.7046875 47.27992188 -9.421875 47.74609375 C-14.40484355 50.51946128 -19.98779914 50.58039599 -25.5625 49.9375 C-30.69558791 47.32429161 -33.7422908 44.39812759 -35.5625 38.9375 C-36.69975202 28.58850658 -36.69975202 28.58850658 -33.4375 24.4375 C-26.93297104 18.78138786 -21.16028268 17.772428 -12.8125 17.875 C-12.11511719 17.87951172 -11.41773438 17.88402344 -10.69921875 17.88867188 C-8.98694197 17.9003998 -7.27470967 17.91833347 -5.5625 17.9375 C-6.16111742 15.58578869 -6.83174352 13.2515622 -7.5625 10.9375 C-13.46538132 7.98605934 -21.47254337 10.53980503 -27.5625 11.9375 C-29.59685531 8.20784861 -30.5625 6.26844958 -30.5625 1.9375 C-10.48015123 -4.75661626 -10.48015123 -4.75661626 0 0 Z " fill="#040404" transform="translate(936.5625,277.0625)"></path><path d="M0 0 C11.88 0 23.76 0 36 0 C36 3.96 36 7.92 36 12 C28.41 12 20.82 12 13 12 C12.67 15.96 12.34 19.92 12 24 C13.01320313 23.96519531 14.02640625 23.93039063 15.0703125 23.89453125 C16.4218583 23.86637405 17.77342219 23.83907597 19.125 23.8125 C19.79015625 23.78736328 20.4553125 23.76222656 21.140625 23.73632812 C27.33411967 23.64524732 31.12276471 25.37875134 35.75 29.375 C40.35885661 34.75199938 40.43650175 39.91068439 40.3125 46.76953125 C39.71834976 52.91155933 37.50384513 56.46197657 33.25 60.8125 C24.77409566 66.51743561 17.06284546 66.8236117 7 66 C3.48558583 65.25152012 0.3818879 64.24869707 -3 63 C-3 58.71 -3 54.42 -3 50 C-1.80375 50.495 -0.6075 50.99 0.625 51.5 C6.9833103 53.59925165 13.37937268 53.86679036 20 53 C23.53331024 51.22258713 23.53331024 51.22258713 25 48 C25.75011367 44.45728358 25.75011367 44.45728358 25 41 C23.13291495 38.63502561 21.67938569 37.33969285 19 36 C15.42713673 35.97410969 11.86795781 36.02808926 8.296875 36.12695312 C7.55179688 36.13791016 6.80671875 36.14886719 6.0390625 36.16015625 C5.36053223 36.17699463 4.68200195 36.19383301 3.98291016 36.21118164 C1.63835258 35.96148424 0.03794262 35.1544925 -2 34 C-2.13852181 26.20718602 -1.735769 18.56816378 -1 10.8125 C-0.505 5.4603125 -0.505 5.4603125 0 0 Z " fill="#050505" transform="translate(1269,126)"></path><path d="M0 0 C5.39918574 3.32167297 8.01978641 7.48696602 10.375 13.375 C10.375 17.995 10.375 22.615 10.375 27.375 C0.145 27.375 -10.085 27.375 -20.625 27.375 C-18.59884121 35.14777038 -18.59884121 35.14777038 -14.625 37.375 C-11.36334852 37.69414534 -11.36334852 37.69414534 -7.75 37.625 C-6.53570313 37.63015625 -5.32140625 37.6353125 -4.0703125 37.640625 C-0.77140179 37.38628721 1.3822977 36.6888693 4.375 35.375 C5.365 35.375 6.355 35.375 7.375 35.375 C7.375 39.005 7.375 42.635 7.375 46.375 C-3.09380353 49.59617032 -14.38645232 51.68965442 -24.6015625 46.33984375 C-30.44744558 42.47161047 -34.09737767 37.24930047 -35.625 30.375 C-36.35515144 21.53632468 -35.89335099 12.37277161 -30.4375 5 C-22.29347488 -2.60109011 -10.46266461 -4.73405737 0 0 Z " fill="#060606" transform="translate(1029.625,277.625)"></path><path d="M0 0 C3.63 0 7.26 0 11 0 C12 1 12 1 12.0625 3.5625 C12.041875 4.366875 12.02125 5.17125 12 6 C12.48726562 5.566875 12.97453125 5.13375 13.4765625 4.6875 C19.45560917 -0.00876939 24.16048461 -0.63029487 31.66796875 -0.50390625 C36.57542575 0.23825313 39.89947421 1.83998633 43.3125 5.4375 C46.49143001 10.26476408 46.13352087 15.07073539 46.09765625 20.703125 C46.0962413 21.54091492 46.09482635 22.37870483 46.09336853 23.24188232 C46.08778197 25.91129157 46.07523194 28.5806162 46.0625 31.25 C46.05748326 33.06249879 46.05292066 34.87499889 46.04882812 36.6875 C46.03781694 41.12503248 46.02056155 45.56250191 46 50 C41.38 50 36.76 50 32 50 C31.98541748 48.99098633 31.97083496 47.98197266 31.95581055 46.94238281 C31.89775886 43.19235109 31.82052708 39.44291554 31.73754883 35.69335938 C31.70433165 34.07171314 31.67628965 32.44995219 31.65356445 30.828125 C31.61995845 28.49429523 31.5676424 26.16151365 31.51171875 23.828125 C31.50532883 23.10506165 31.4989389 22.38199829 31.49235535 21.63702393 C31.37270165 17.52405354 31.01720885 14.91893749 28 12 C26.05637998 11.48219445 26.05637998 11.48219445 24 11.6875 C23.319375 11.71199219 22.63875 11.73648437 21.9375 11.76171875 C19.78554857 11.96144893 19.78554857 11.96144893 17 13 C15.21783182 17.77080204 14.7163283 22.18258446 14.5859375 27.24609375 C14.56657135 27.90207047 14.5472052 28.55804718 14.5272522 29.23390198 C14.46811091 31.30164128 14.42133771 33.36943829 14.375 35.4375 C14.33675967 36.85093394 14.29770455 38.26434609 14.2578125 39.67773438 C14.1609501 43.11836747 14.08086912 46.5588063 14 50 C9.38 50 4.76 50 0 50 C0 33.5 0 17 0 0 Z " fill="#040404" transform="translate(1243,276)"></path><path d="M0 0 C-0.28359887 1.4391134 -0.57721399 2.87625518 -0.875 4.3125 C-1.11863281 5.51326172 -1.11863281 5.51326172 -1.3671875 6.73828125 C-2 9 -2 9 -4 12 C-6.74183087 11.51614749 -9.20095439 10.9240839 -11.8125 9.9375 C-17.22898343 8.34441664 -21.2154126 8.09087057 -26.3125 10.6875 C-30.14721254 13.98713637 -31.97108197 17.10175437 -33 22 C-33.1461632 24.80520909 -33.23071837 27.56952255 -33.25 30.375 C-33.270625 31.1175 -33.29125 31.86 -33.3125 32.625 C-33.35754104 38.99830653 -31.74503756 42.99320681 -27.5 47.875 C-23.20325619 51.20738735 -18.15588107 50.59202704 -13 50 C-10.59046573 49.47291438 -8.35084834 48.76762395 -6 48 C-4.68 48 -3.36 48 -2 48 C-2 51.96 -2 55.92 -2 60 C-11.35763811 63.74305525 -22.7259022 64.8846586 -32.375 61.4375 C-39.64568111 58.02016204 -43.64380763 53.49250487 -46.9375 46.1875 C-50.61579205 35.62763506 -50.89358274 22.77534769 -46.40234375 12.40234375 C-42.49502174 5.70874198 -37.23353071 -0.37968503 -29.640625 -2.73046875 C-18.51739678 -4.85696826 -10.77351147 -3.72993287 0 0 Z " fill="#050505" transform="translate(1178,264)"></path><path d="M0 0 C16.17 0 32.34 0 49 0 C49 3.96 49 7.92 49 12 C43.39 12 37.78 12 32 12 C32 29.49 32 46.98 32 65 C27.05 65 22.1 65 17 65 C17 47.51 17 30.02 17 12 C11.39 12 5.78 12 0 12 C0 8.04 0 4.08 0 0 Z " fill="#090909" transform="translate(651,261)"></path><path d="M0 0 C2.31 0 4.62 0 7 0 C7 18.15 7 36.3 7 55 C5.02 55 3.04 55 1 55 C0.67 53.68 0.34 52.36 0 51 C-0.763125 51.639375 -1.52625 52.27875 -2.3125 52.9375 C-6.59116265 56.22112483 -10.74037535 56.67678994 -16 56 C-20.31090773 54.55723652 -23.04471074 52.397786 -25.375 48.5 C-28.61183085 41.52836432 -29.31674392 33.84475889 -27.28125 26.35546875 C-25.38123781 21.73568105 -23.35453949 18.67971661 -19 16 C-13.79792242 14.26597414 -9.5443588 14.35417723 -4.5625 16.4375 C-2 18 -2 18 -1 19 C-0.67 12.73 -0.34 6.46 0 0 Z " fill="#101010" transform="translate(1285,391)"></path><path d="M0 0 C2.31 0 4.62 0 7 0 C7 18.15 7 36.3 7 55 C5.02 55 3.04 55 1 55 C0.67 53.68 0.34 52.36 0 51 C-0.763125 51.639375 -1.52625 52.27875 -2.3125 52.9375 C-6.59116265 56.22112483 -10.74037535 56.67678994 -16 56 C-20.31090773 54.55723652 -23.04471074 52.397786 -25.375 48.5 C-28.61183085 41.52836432 -29.31674392 33.84475889 -27.28125 26.35546875 C-25.38123781 21.73568105 -23.35453949 18.67971661 -19 16 C-13.79792242 14.26597414 -9.5443588 14.35417723 -4.5625 16.4375 C-2 18 -2 18 -1 19 C-0.67 12.73 -0.34 6.46 0 0 Z " fill="#101010" transform="translate(888,391)"></path><path d="M0 0 C1.98 0 3.96 0 6 0 C6.33 6.6 6.66 13.2 7 20 C8.65 18.68 10.3 17.36 12 16 C15.47370107 14.26314947 19.20190812 14.53884888 23 15 C27.9710149 17.53240382 31.49430567 20.98861134 34 26 C34.15189832 28.74293304 34.23144389 31.44351592 34.25 34.1875 C34.270625 34.93064453 34.29125 35.67378906 34.3125 36.43945312 C34.35662085 42.73218987 33.15429603 47.44177346 29 52.375 C25.52398138 55.19926513 22.387051 55.16077224 18.0625 55.1875 C16.50208984 55.20876953 16.50208984 55.20876953 14.91015625 55.23046875 C10.85945018 54.90967458 8.84661368 53.84661368 6 51 C5.67 52.32 5.34 53.64 5 55 C3.35 55 1.7 55 0 55 C0 36.85 0 18.7 0 0 Z " fill="#070707" transform="translate(925,391)"></path><path d="M0 0 C3.3 0 6.6 0 10 0 C10 3.3 10 6.6 10 10 C14.62 10 19.24 10 24 10 C24 13.63 24 17.26 24 21 C19.38 21 14.76 21 10 21 C10.1400827 25.31275889 10.2867801 29.62511136 10.4375 33.9375 C10.47681641 35.16919922 10.51613281 36.40089844 10.55664062 37.66992188 C10.59853516 38.83974609 10.64042969 40.00957031 10.68359375 41.21484375 C10.72025146 42.29886475 10.75690918 43.38288574 10.79467773 44.49975586 C10.72364265 46.939263 10.72364265 46.939263 12 48 C14.01964199 48.07244053 16.04167124 48.08377188 18.0625 48.0625 C19.16722656 48.05347656 20.27195312 48.04445313 21.41015625 48.03515625 C22.69212891 48.01775391 22.69212891 48.01775391 24 48 C24 51.63 24 55.26 24 59 C17.46810849 61.61275661 10.57540919 62.36951023 3.703125 60.3125 C-0.61287586 58.09916623 -2.22718822 55.36817201 -4 51 C-4.34057617 47.56494141 -4.34057617 47.56494141 -4.29296875 43.8515625 C-4.28872391 43.19417084 -4.28447906 42.53677917 -4.28010559 41.85946655 C-4.26344977 39.78087609 -4.2258262 37.70329226 -4.1875 35.625 C-4.17243605 34.20704536 -4.15875065 32.78907536 -4.14648438 31.37109375 C-4.11359038 27.9137411 -4.06190165 24.45696897 -4 21 C-6.31 21 -8.62 21 -11 21 C-11 18.69 -11 16.38 -11 14 C-9.9275 13.54625 -8.855 13.0925 -7.75 12.625 C-2.76338925 9.85353683 -1.60037735 5.20868155 0 0 Z " fill="#080808" transform="translate(964,266)"></path><path d="M0 0 C0.79470703 -0.01224609 1.58941406 -0.02449219 2.40820312 -0.03710938 C7.07282268 -0.04868411 10.79940048 0.39975575 15.1875 2.1875 C14.71949289 6.24356165 14.30796792 9.65338679 12.1875 13.1875 C11.40375 13.0225 10.62 12.8575 9.8125 12.6875 C1.32769719 11.27353287 1.32769719 11.27353287 -6.375 14 C-9.79955609 19.21128101 -9.27256209 25.17496437 -8.8125 31.1875 C-7.30996092 35.57469953 -7.30996092 35.57469953 -3.8125 38.1875 C2.91040167 38.83729719 8.04708391 37.91657382 14.1875 35.1875 C14.1875 39.4775 14.1875 43.7675 14.1875 48.1875 C6.29647651 51.39740786 -1.81790353 52.82771532 -10.2109375 50.53125 C-16.1061647 47.91114902 -20.42927092 43.42766675 -22.953125 37.515625 C-24.0214386 33.37833778 -24.18039614 29.56771269 -24.1875 25.3125 C-24.21199219 24.54808594 -24.23648437 23.78367187 -24.26171875 22.99609375 C-24.29663464 16.14093998 -22.35845094 11.03642399 -17.77734375 5.91015625 C-17.10832031 5.36230469 -16.43929688 4.81445312 -15.75 4.25 C-15.07839844 3.68410156 -14.40679688 3.11820312 -13.71484375 2.53515625 C-9.45168144 -0.48494847 -4.99236666 0.0039907 0 0 Z " fill="#050505" transform="translate(1350.8125,275.8125)"></path><path d="M0 0 C4.62 0 9.24 0 14 0 C14 22.77 14 45.54 14 69 C9.38 69 4.76 69 0 69 C0 46.23 0 23.46 0 0 Z " fill="#040404" transform="translate(1188,257)"></path><path d="M0 0 C4.23492038 2.36826616 6.06007993 4.8373973 7.8125 9.4375 C7.8125 13.0675 7.8125 16.6975 7.8125 20.4375 C-0.7675 20.4375 -9.3475 20.4375 -18.1875 20.4375 C-16.09386265 28.68909702 -16.09386265 28.68909702 -13.3671875 31.484375 C-10.54651015 32.71778947 -8.38538587 32.76569048 -5.3125 32.6875 C-4.25804687 32.66171875 -3.20359375 32.6359375 -2.1171875 32.609375 C0.91751996 32.43133883 3.84279035 32.09743548 6.8125 31.4375 C6.8125 33.4175 6.8125 35.3975 6.8125 37.4375 C-0.68734138 39.65967522 -8.19271863 41.13352416 -15.5625 37.75 C-20.38432355 34.9599529 -22.63556439 32.06571005 -24.4375 26.75 C-25.95895122 19.40554 -26.19615439 12.77127667 -22.390625 6.125 C-17.02802465 -1.39656933 -8.38925908 -3.63326648 0 0 Z " fill="#0C0C0C" transform="translate(1326.1875,407.5625)"></path><path d="M0 0 C4.23492038 2.36826616 6.06007993 4.8373973 7.8125 9.4375 C7.8125 13.0675 7.8125 16.6975 7.8125 20.4375 C-0.7675 20.4375 -9.3475 20.4375 -18.1875 20.4375 C-16.09386265 28.68909702 -16.09386265 28.68909702 -13.3671875 31.484375 C-10.54651015 32.71778947 -8.38538587 32.76569048 -5.3125 32.6875 C-4.25804687 32.66171875 -3.20359375 32.6359375 -2.1171875 32.609375 C0.91751996 32.43133883 3.84279035 32.09743548 6.8125 31.4375 C6.8125 33.4175 6.8125 35.3975 6.8125 37.4375 C-0.68734138 39.65967522 -8.19271863 41.13352416 -15.5625 37.75 C-20.38432355 34.9599529 -22.63556439 32.06571005 -24.4375 26.75 C-25.95895122 19.40554 -26.19615439 12.77127667 -22.390625 6.125 C-17.02802465 -1.39656933 -8.38925908 -3.63326648 0 0 Z " fill="#0C0C0C" transform="translate(714.1875,407.5625)"></path><path d="M0 0 C4.42484878 2.21242439 7.19476657 4.94799616 10 9 C11 12 11 12 11 22 C2.42 22 -6.16 22 -15 22 C-13.71404676 29.42508827 -13.71404676 29.42508827 -11.0625 32.5 C-4.93503739 35.50120618 2.47743828 34.41028362 9 33 C9 34.65 9 36.3 9 38 C5.24629436 40.4311565 1.45188858 40.36706075 -2.875 40.375 C-3.56980469 40.39949219 -4.26460937 40.42398438 -4.98046875 40.44921875 C-11.02340015 40.48335961 -14.41074899 38.48688527 -18.6796875 34.38671875 C-23.25718373 27.87949372 -22.91471475 20.66821619 -22 13 C-20.37060275 7.52923046 -16.44947906 4.28874539 -12 1 C-8.28795513 -0.85602244 -4.0512695 -0.44875601 0 0 Z " fill="#0A0A0A" transform="translate(842,406)"></path><path d="M0 0 C7.43682107 6.14546609 11.17917846 13.6601308 12.41015625 23.16796875 C12.8336246 32.25625112 10.7268005 40.02542373 5.23828125 47.3515625 C-0.84452024 53.94023592 -8.83933543 58.4010465 -17.8125 59.2734375 C-28.14174774 59.60255569 -36.70292762 57.45321945 -44.4375 50.3125 C-51.86360492 42.15925564 -54.44906657 33.32436047 -54.33984375 22.5234375 C-53.54179188 14.24938245 -50.1108593 6.99650718 -43.88671875 1.4609375 C-29.74398068 -9.49016817 -14.82883423 -9.86764984 0 0 Z M-44.59765625 8.875 C-49.32797699 16.04295121 -51.18155692 22.37585256 -50 31 C-47.88568394 39.45726424 -43.51807113 45.97934673 -36.265625 50.828125 C-28.5130467 55.12618655 -22.01016926 56.52710096 -13.37109375 54.33203125 C-4.67051618 51.29014993 1.04519282 46.28530641 5.5 38.25 C9.04805938 30.47529065 9.25054143 23.85853554 6.4375 15.8125 C2.46848621 7.146591 -3.14923026 2.01049836 -11.82421875 -1.921875 C-24.22071832 -6.13028076 -36.67994708 -1.34639472 -44.59765625 8.875 Z " fill="#101010" transform="translate(1448,393)"></path><path d="M0 0 C4.62 0 9.24 0 14 0 C14 16.5 14 33 14 50 C9.38 50 4.76 50 0 50 C0 33.5 0 17 0 0 Z " fill="#060606" transform="translate(1302,276)"></path><path d="M0 0 C4.62 0 9.24 0 14 0 C14 16.5 14 33 14 50 C9.38 50 4.76 50 0 50 C0 33.5 0 17 0 0 Z " fill="#060606" transform="translate(1216,276)"></path><path d="M0 0 C2.31 0 4.62 0 7 0 C10.95207137 9.23315789 14.52148365 18.58051242 18 28 C19.96029162 25.05956256 20.98603514 22.55358683 22.1640625 19.23828125 C22.56367187 18.12001953 22.96328125 17.00175781 23.375 15.84960938 C23.7875 14.68236328 24.2 13.51511719 24.625 12.3125 C25.25535156 10.54422852 25.25535156 10.54422852 25.8984375 8.74023438 C26.9359575 5.82810438 27.96965251 2.91467383 29 0 C31.31 0 33.62 0 36 0 C35.33928975 5.51002134 33.55563309 10.36891016 31.61328125 15.52734375 C31.27378952 16.43448624 30.93429779 17.34162872 30.58451843 18.27626038 C29.86549306 20.189483 29.14332394 22.10152672 28.41821289 24.01245117 C27.31947228 26.91905557 26.2425178 29.83314583 25.16601562 32.74804688 C24.46226827 34.61248202 23.75723165 36.47643113 23.05078125 38.33984375 C22.73490555 39.20359116 22.41902985 40.06733856 22.09358215 40.95726013 C19.84123315 46.79689173 16.85748948 53.07125526 11 56 C9.29297265 56.06996014 7.58331997 56.08440154 5.875 56.0625 C4.96492187 56.05347656 4.05484375 56.04445313 3.1171875 56.03515625 C2.41851563 56.02355469 1.71984375 56.01195312 1 56 C1 54.35 1 52.7 1 51 C2.051875 50.95875 3.10375 50.9175 4.1875 50.875 C8.0615199 49.98588068 9.49460659 49.05100621 12.0546875 46.05859375 C14.22052563 41.34207848 14.51832316 36.73926931 12.82836914 31.89477539 C12.24907385 30.45484491 11.65043788 29.02258128 11.03515625 27.59765625 C10.72299667 26.83448593 10.4108371 26.07131561 10.08921814 25.28501892 C9.09727155 22.87007545 8.08072147 20.46646666 7.0625 18.0625 C6.05372487 15.63140713 5.04997358 13.19828169 4.04649353 10.76499939 C3.42203516 9.25633938 2.79336919 7.74941297 2.16017151 6.24440002 C0 1.10276598 0 1.10276598 0 0 Z " fill="#080808" transform="translate(963,407)"></path><path d="M0 0 C5.25535679 1.78483815 7.33454301 4.19979379 10 9 C10.45410156 12.52685547 10.45410156 12.52685547 10.390625 16.3671875 C10.38496521 17.04677521 10.37930542 17.72636292 10.37347412 18.42654419 C10.35125351 20.57677549 10.30109198 22.72528074 10.25 24.875 C10.22991614 26.3411216 10.21166868 27.80726958 10.1953125 29.2734375 C10.15143811 32.84951008 10.08251443 36.42458631 10 40 C7.69 40 5.38 40 3 40 C2.67 29.44 2.34 18.88 2 8 C-0.67703231 7.1076559 -2.59383084 6.74839658 -5.375 6.625 C-6.12523437 6.57601563 -6.87546875 6.52703125 -7.6484375 6.4765625 C-11.24633911 7.27742432 -12.67525314 9.20646825 -15 12 C-15.77123439 15.17047234 -15.77123439 15.17047234 -15.70703125 18.61328125 C-15.73603516 19.86044922 -15.76503906 21.10761719 -15.79492188 22.39257812 C-15.80072266 23.68615234 -15.80652344 24.97972656 -15.8125 26.3125 C-15.83763672 27.62541016 -15.86277344 28.93832031 -15.88867188 30.29101562 C-15.94751968 33.52764489 -15.98381937 36.76292218 -16 40 C-18.31 40 -20.62 40 -23 40 C-23 27.13 -23 14.26 -23 1 C-21.02 1 -19.04 1 -17 1 C-16.67 2.32 -16.34 3.64 -16 5 C-14.824375 4.0409375 -14.824375 4.0409375 -13.625 3.0625 C-9.10513598 -0.48882173 -5.61245813 -0.51108388 0 0 Z " fill="#121212" transform="translate(1238,406)"></path><path d="M0 0 C3.125 0.375 3.125 0.375 5.375 1.8125 C11.22613454 10.38023273 10.25604805 24.79787812 8.5546875 34.69140625 C6.83763385 40.89991077 6.83763385 40.89991077 3.125 43.375 C0.1875 43.8125 0.1875 43.8125 -2.875 43.375 C-7.47638227 38.89797941 -7.99082801 34.94711641 -8.078125 28.76171875 C-8.09937927 26.52869232 -8.11478569 24.29560422 -8.125 22.0625 C-8.145625 20.94681641 -8.16625 19.83113281 -8.1875 18.68164062 C-8.2170038 12.46002636 -7.9739215 7.82819924 -4.875 2.375 C-2.875 0.375 -2.875 0.375 0 0 Z " fill="#F9F9F9" transform="translate(1363.875,136.625)"></path><path d="M0 0 C2.31 0 4.62 0 7 0 C7.01458252 0.85754883 7.02916504 1.71509766 7.04418945 2.59863281 C7.10535478 5.78960413 7.17952762 8.97993587 7.26245117 12.17041016 C7.29564193 13.54952667 7.32369217 14.92877711 7.34643555 16.30810547 C7.38008642 18.29422306 7.43394729 20.27996559 7.48828125 22.265625 C7.51446533 23.45961914 7.54064941 24.65361328 7.56762695 25.88378906 C8.02942355 29.21206222 8.6581273 30.634519 11 33 C14.06238595 33.83154675 16.90501532 33.64071613 20 33 C23.28175318 30.47031526 24.69243777 28.92268669 26 25 C26.14939774 23.08234406 26.24810283 21.16053478 26.31640625 19.23828125 C26.35830078 18.12001953 26.40019531 17.00175781 26.44335938 15.84960938 C26.48267578 14.68236328 26.52199219 13.51511719 26.5625 12.3125 C26.60568359 11.13365234 26.64886719 9.95480469 26.69335938 8.74023438 C26.79951176 5.82694117 26.90156242 2.91356243 27 0 C28.98 0 30.96 0 33 0 C33 12.87 33 25.74 33 39 C31.35 39 29.7 39 28 39 C27.34 38.01 26.68 37.02 26 36 C25.319375 36.4846875 24.63875 36.969375 23.9375 37.46875 C18.63144682 40.23467134 12.82609828 39.75265384 7 39 C3.41557673 36.5184762 1.59562962 33.99899818 0 30 C-0.22705078 26.79199219 -0.22705078 26.79199219 -0.1953125 23.046875 C-0.1924826 22.38665344 -0.18965271 21.72643188 -0.18673706 21.04620361 C-0.17558415 18.94728103 -0.15048946 16.84879258 -0.125 14.75 C-0.11496384 13.32292285 -0.1058391 11.89583898 -0.09765625 10.46875 C-0.07566111 6.97902672 -0.04116536 3.48955577 0 0 Z " fill="#0A0A0A" transform="translate(1092,407)"></path><path d="M0 0 C3.16015625 -0.40625 3.16015625 -0.40625 7 0 C9.28418704 1.8373609 10.80657499 4.08251177 12.4375 6.5 C12.88287109 7.12003906 13.32824219 7.74007813 13.78710938 8.37890625 C14.87867023 9.90474401 15.94220918 11.45055993 17 13 C17.556875 12.0615625 18.11375 11.123125 18.6875 10.15625 C24.7158295 0.46601261 24.7158295 0.46601261 28.37890625 -0.86328125 C30.5625 -0.8125 30.5625 -0.8125 34 0 C32.94009367 1.68913027 31.87692554 3.37621391 30.8125 5.0625 C30.18085937 6.06667969 29.54921875 7.07085937 28.8984375 8.10546875 C27.34024589 10.48123002 25.71233936 12.6638051 23.9375 14.875 C23.298125 15.90625 22.65875 16.9375 22 18 C23.16897388 22.70041945 26.27563464 26.36839265 29.125 30.1875 C34 36.73450413 34 36.73450413 34 39 C30.83984375 39.4375 30.83984375 39.4375 27 39 C24.68668535 36.99607162 23.1788087 34.58011682 21.5625 32 C21.11712891 31.33226562 20.67175781 30.66453125 20.21289062 29.9765625 C19.12033222 28.33185092 18.0571836 26.6676699 17 25 C15.51887554 26.95687959 14.04003653 28.91541437 12.5625 30.875 C12.14162109 31.43058594 11.72074219 31.98617188 11.28710938 32.55859375 C8.94254056 35.65092886 8.94254056 35.65092886 7 39 C4.36 39 1.72 39 -1 39 C1.97788155 33.4164721 5.540321 28.59579163 9.48828125 23.6484375 C11.18725063 21.16261775 11.18725063 21.16261775 11.046875 18.61328125 C9.56362552 14.91069207 7.33982101 11.97484004 4.9375 8.8125 C0 2.24488404 0 2.24488404 0 0 Z " fill="#090909" transform="translate(1340,407)"></path><path d="M0 0 C3.28175318 2.52968474 4.69243777 4.07731331 6 8 C7.00676527 20.36175711 7.00676527 20.36175711 4.1875 24.6875 C1.34194317 27.69566007 -0.20133167 28.92604923 -4.375 29.3125 C-8.21662869 28.98132511 -9.97920964 28.33032399 -13 26 C-15.53977065 22.19034402 -15.36753945 19.04164491 -15.375 14.625 C-15.39949219 13.86960937 -15.42398438 13.11421875 -15.44921875 12.3359375 C-15.4700125 8.3712631 -15.28794347 6.45146692 -13.1015625 3.0234375 C-9.2248551 -0.70915438 -5.18800538 -0.81538599 0 0 Z " fill="#F9F9F9" transform="translate(947,412)"></path><path d="M0 0 C3.81301521 0.06754133 4.53277264 0.31500751 7.6875 2.8125 C10.76973669 6.85793566 10.87320261 9.10800647 10.9375 14.1875 C10.96328125 15.39921875 10.9890625 16.6109375 11.015625 17.859375 C10.65933627 21.74461873 9.69234449 24.11743812 7.6875 27.4375 C4.75854284 29.82405768 1.3764322 29.91141266 -2.34375 29.828125 C-5.73377675 29.15550064 -7.28098242 27.08462896 -9.3125 24.4375 C-11.12949023 18.98652931 -11.60022052 11.74529394 -9.48828125 6.3203125 C-6.83846281 2.36036077 -4.78173983 0.13662114 0 0 Z " fill="#FAFAFA" transform="translate(1274.3125,411.5625)"></path><path d="M0 0 C3.81301521 0.06754133 4.53277264 0.31500751 7.6875 2.8125 C10.76973669 6.85793566 10.87320261 9.10800647 10.9375 14.1875 C10.96328125 15.39921875 10.9890625 16.6109375 11.015625 17.859375 C10.65933627 21.74461873 9.69234449 24.11743812 7.6875 27.4375 C4.75854284 29.82405768 1.3764322 29.91141266 -2.34375 29.828125 C-5.73377675 29.15550064 -7.28098242 27.08462896 -9.3125 24.4375 C-11.12949023 18.98652931 -11.60022052 11.74529394 -9.48828125 6.3203125 C-6.83846281 2.36036077 -4.78173983 0.13662114 0 0 Z " fill="#FAFAFA" transform="translate(877.3125,411.5625)"></path><path d="M0 0 C0.33 0.66 0.66 1.32 1 2 C0.0625 4.125 0.0625 4.125 -1 6 C-1.70769531 5.83757812 -2.41539063 5.67515625 -3.14453125 5.5078125 C-6.05410606 4.99037785 -8.73512902 4.86694442 -11.6875 4.875 C-12.64011719 4.87242187 -13.59273437 4.86984375 -14.57421875 4.8671875 C-17.00996498 4.83929591 -17.00996498 4.83929591 -19 6 C-19 7.98 -19 9.96 -19 12 C-18.45472656 12.15855469 -17.90945313 12.31710937 -17.34765625 12.48046875 C-10.76752018 14.5163741 -3.94885266 17.05114734 1 22 C1.56910225 25.38466075 1.52301142 28.61109949 1 32 C-1.74136982 35.75959289 -4.48225268 37.89566177 -9 39 C-15.06719917 39.48578937 -20.25921733 38.99679397 -26 37 C-26 35.02 -26 33.04 -26 31 C-25.05125 31.165 -24.1025 31.33 -23.125 31.5 C-14.15679719 32.85306702 -14.15679719 32.85306702 -6 30 C-5.74969023 27.41619823 -5.74969023 27.41619823 -6 25 C-6.6290625 24.68546875 -7.258125 24.3709375 -7.90625 24.046875 C-9.68854288 23.15572856 -11.46973474 22.2623777 -13.25 21.3671875 C-14.94997186 20.52203103 -16.65709949 19.69090386 -18.375 18.8828125 C-21.88702359 17.21718366 -23.80045605 16.29931592 -26 13 C-26.66799205 6.09741551 -26.66799205 6.09741551 -24.25 2.125 C-17.46140997 -4.28644614 -8.27965014 -2.70970368 0 0 Z " fill="#0D0D0D" transform="translate(1161,408)"></path><path d="M0 0 C12.87 0 25.74 0 39 0 C39 1.98 39 3.96 39 6 C33.72 6 28.44 6 23 6 C23 21.18 23 36.36 23 52 C21.02 52 19.04 52 17 52 C17 36.82 17 21.64 17 6 C11.39 6 5.78 6 0 6 C0 4.02 0 2.04 0 0 Z " fill="#030303" transform="translate(1018,394)"></path><path d="M0 0 C2.31 0 4.62 0 7 0 C10.36150603 7.71956472 13.30925424 15.51012165 16.03173828 23.47436523 C17.03133083 27.01075788 17.03133083 27.01075788 19 30 C19.2266333 29.30438965 19.4532666 28.6087793 19.68676758 27.89208984 C20.72386882 24.71813178 21.76811396 21.5465681 22.8125 18.375 C23.16892578 17.28058594 23.52535156 16.18617188 23.89257812 15.05859375 C25.61909836 9.83151413 27.32070003 4.81766871 30 0 C31.98 0 33.96 0 36 0 C34.5955552 7.66978239 32.00622982 14.76190651 29.2043457 22.01416016 C28.42933444 24.02114571 27.66418818 26.03169209 26.90039062 28.04296875 C23.15239312 37.84760688 23.15239312 37.84760688 22 39 C19.66702567 39.04092937 17.33294775 39.04241723 15 39 C9.4428797 26.26609619 4.39340111 13.18020333 0 0 Z " fill="#080808" transform="translate(649,407)"></path><path d="M0 0 C1.27230469 0.01804687 2.54460938 0.03609375 3.85546875 0.0546875 C5.31919922 0.08949219 5.31919922 0.08949219 6.8125 0.125 C6.4825 2.105 6.1525 4.085 5.8125 6.125 C5.18601562 6.10179687 4.55953125 6.07859375 3.9140625 6.0546875 C3.09679687 6.03664063 2.27953125 6.01859375 1.4375 6 C0.21933594 5.96519531 0.21933594 5.96519531 -1.0234375 5.9296875 C-3.40092243 5.91129949 -3.40092243 5.91129949 -5.1875 8.125 C-5.64561675 10.09735333 -5.64561675 10.09735333 -5.8125 12.25 C-5.93625 13.52875 -6.06 14.8075 -6.1875 16.125 C-3.2175 16.125 -0.2475 16.125 2.8125 16.125 C2.8125 17.775 2.8125 19.425 2.8125 21.125 C-0.4875 21.125 -3.7875 21.125 -7.1875 21.125 C-7.1875 32.345 -7.1875 43.565 -7.1875 55.125 C-9.1675 55.125 -11.1475 55.125 -13.1875 55.125 C-13.1875 43.905 -13.1875 32.685 -13.1875 21.125 C-15.4975 21.125 -17.8075 21.125 -20.1875 21.125 C-19.8575 19.805 -19.5275 18.485 -19.1875 17.125 C-17.2075 16.795 -15.2275 16.465 -13.1875 16.125 C-13.2803125 14.330625 -13.2803125 14.330625 -13.375 12.5 C-13.375 8.36785472 -12.45171886 5.64711822 -10.1875 2.125 C-6.4507157 -0.36618953 -4.44298181 -0.0815226 0 0 Z " fill="#060606" transform="translate(794.1875,390.875)"></path><path d="M0 0 C3.34139976 0.02999461 4.22721051 0.29795352 7.1875 2.1875 C10.75103975 5.8590258 10.52857298 9.17102024 10.625 14.0625 C10.66238281 14.76632812 10.69976563 15.47015625 10.73828125 16.1953125 C10.80377587 20.11043541 10.43049314 22.6281327 8.01171875 25.78515625 C5.23111499 28.32978232 4.35740671 29.12126648 0.6875 29 C-2.87926343 28.76854613 -3.541324 28.5107422 -6.25 25.9375 C-9.66643068 19.95874632 -9.33727092 14.12020632 -8.75 7.3125 C-6.96715944 2.70142601 -4.9051769 0.40876474 0 0 Z " fill="#FBFBFB" transform="translate(728.75,286.6875)"></path><path d="M0 0 C3.04433421 2.85406332 3.91856613 5.81294475 4.203125 9.9609375 C4.21859375 11.08757812 4.2340625 12.21421875 4.25 13.375 C4.27578125 14.49648438 4.3015625 15.61796875 4.328125 16.7734375 C3.86877024 21.29042597 2.16393435 23.83606565 -1 27 C-4.08381224 27.6300913 -6.90812117 27.55973668 -10 27 C-13.1477058 24.8801165 -13.79902493 24.41238589 -15 21 C-15.8090727 14.47685133 -16.37236144 8.44723757 -13.08984375 2.59375 C-9.33722716 -2.06370311 -5.48814364 -1.31916847 0 0 Z " fill="#F9F9F9" transform="translate(1077,288)"></path><path d="M0 0 C3.18256788 0.06931182 3.93424156 0.22826274 6.5625 2.25 C9.44408213 6.1689517 9.34136704 9.46627285 9.375 14.1875 C9.395625 14.89970703 9.41625 15.61191406 9.4375 16.34570312 C9.4711086 20.88706543 8.94727941 23.77864881 6.125 27.375 C2.98628812 28.94435594 0.58644178 28.72701103 -2.875 28.375 C-6.34848591 25.65661972 -8.11346574 23.67999982 -8.875 19.375 C-9.37103785 13.06005656 -9.50457013 7.8193552 -5.875 2.375 C-3.875 0.375 -3.875 0.375 0 0 Z " fill="#F8F8F8" transform="translate(786.875,286.625)"></path><path d="M0 0 C1.32 0 2.64 0 4 0 C4 2.97 4 5.94 4 9 C7.96 9 11.92 9 16 9 C16 10.65 16 12.3 16 14 C12.04 14 8.08 14 4 14 C4.11360633 18.10477592 4.24036599 22.20840664 4.375 26.3125 C4.4059375 27.47974609 4.436875 28.64699219 4.46875 29.84960938 C4.50742188 30.96787109 4.54609375 32.08613281 4.5859375 33.23828125 C4.6173584 34.26993408 4.6487793 35.30158691 4.68115234 36.36450195 C4.82674629 39.22843236 4.82674629 39.22843236 7 42 C9.19454681 42.57993699 9.19454681 42.57993699 11.625 42.6875 C12.44226562 42.75324219 13.25953125 42.81898438 14.1015625 42.88671875 C14.72804688 42.92410156 15.35453125 42.96148437 16 43 C16 44.65 16 46.3 16 48 C13.91781638 48.10832169 11.83400871 48.18573541 9.75 48.25 C8.58984375 48.29640625 7.4296875 48.3428125 6.234375 48.390625 C3 48 3 48 0.640625 46.171875 C-2.18106113 42.43650003 -2.11896665 39.33989558 -2.09765625 34.80078125 C-2.09282227 32.98803711 -2.09282227 32.98803711 -2.08789062 31.13867188 C-2.07951172 29.87603516 -2.07113281 28.61339844 -2.0625 27.3125 C-2.05798828 26.03826172 -2.05347656 24.76402344 -2.04882812 23.45117188 C-2.03702873 20.30073436 -2.02056597 17.15039051 -2 14 C-3.98 14 -5.96 14 -8 14 C-8 12.68 -8 11.36 -8 10 C-7.05125 9.649375 -6.1025 9.29875 -5.125 8.9375 C-1.65663938 7.2285659 -1.65663938 7.2285659 -0.625 3.3125 C-0.41875 2.219375 -0.2125 1.12625 0 0 Z " fill="#050505" transform="translate(1174,398)"></path><path d="M0 0 C0 1.98 0 3.96 0 6 C-0.67546875 6.08636719 -1.3509375 6.17273438 -2.046875 6.26171875 C-7.8612431 7.11982721 -7.8612431 7.11982721 -12.5625 10.4375 C-14.70309723 14.25334723 -15.15683273 17.23448361 -15.31640625 21.54296875 C-15.35830078 22.61611328 -15.40019531 23.68925781 -15.44335938 24.79492188 C-15.50233398 26.47424805 -15.50233398 26.47424805 -15.5625 28.1875 C-15.60568359 29.31865234 -15.64886719 30.44980469 -15.69335938 31.61523438 C-15.79949099 34.41003354 -15.90154385 37.20492162 -16 40 C-17.98 40 -19.96 40 -22 40 C-22 27.13 -22 14.26 -22 1 C-20.35 1 -18.7 1 -17 1 C-16.34 2.32 -15.68 3.64 -15 5 C-14.01 4.175 -13.02 3.35 -12 2.5 C-7.86904411 -0.49895571 -4.99719798 -0.4383507 0 0 Z " fill="#040404" transform="translate(754,406)"></path><path d="M0 0 C0 1.98 0 3.96 0 6 C-0.67546875 6.08636719 -1.3509375 6.17273438 -2.046875 6.26171875 C-7.88490576 7.11575033 -7.88490576 7.11575033 -12.5625 10.5 C-14.70440374 14.22504998 -15.16399626 16.35303709 -15.31640625 20.6640625 C-15.35830078 21.78554688 -15.40019531 22.90703125 -15.44335938 24.0625 C-15.50233398 25.8259375 -15.50233398 25.8259375 -15.5625 27.625 C-15.60568359 28.80835938 -15.64886719 29.99171875 -15.69335938 31.2109375 C-15.79967426 34.14050328 -15.90170642 37.07015588 -16 40 C-17.98 40 -19.96 40 -22 40 C-22 27.13 -22 14.26 -22 1 C-20.35 1 -18.7 1 -17 1 C-17 2.98 -17 4.96 -17 7 C-16.34 7 -15.68 7 -15 7 C-14.773125 6.401875 -14.54625 5.80375 -14.3125 5.1875 C-10.8701556 -0.54974067 -6.01776256 -0.30598793 0 0 Z " fill="#040404" transform="translate(1086,406)"></path><path d="M0 0 C2.31 0 4.62 0 7 0 C7 12.87 7 25.74 7 39 C4.69 39 2.38 39 0 39 C0 26.13 0 13.26 0 0 Z " fill="#161616" transform="translate(1197,407)"></path><path d="M0 0 C2.31 0 4.62 0 7 0 C7 12.87 7 25.74 7 39 C4.69 39 2.38 39 0 39 C0 26.13 0 13.26 0 0 Z " fill="#161616" transform="translate(761,407)"></path><path d="M0 0 C8.84433962 -0.35377358 8.84433962 -0.35377358 13.0625 0.9375 C15.69072328 3.73528607 16.04014456 6.06418162 16.2734375 9.83984375 C16 12 16 12 13.75 14.5 C8.50803386 17.35925426 6.66746427 17 0 17 C0 11.39 0 5.78 0 0 Z " fill="#F7F7F7" transform="translate(860,273)"></path><path d="M0 0 C1.98 0 3.96 0 6 0 C6 12.87 6 25.74 6 39 C4.02 39 2.04 39 0 39 C0 26.13 0 13.26 0 0 Z " fill="#000000" transform="translate(804,407)"></path><path d="M0 0 C2.5 1.5625 2.5 1.5625 4 4 C4.5625 7.5 4.5625 7.5 4 11 C1.27151928 14.22456813 -0.37942087 14.91290117 -4.5625 15.5 C-8 15 -8 15 -10.4375 13.5 C-12.79893062 9.72171101 -12.56153595 7.42209561 -12 3 C-9.09039886 -0.87946819 -4.47718802 -0.80736177 0 0 Z " fill="#090909" transform="translate(1330,177)"></path><path d="M0 0 C3.43522779 0.86054191 4.91964542 2.67705308 6.93359375 5.484375 C7.26359375 7.464375 7.59359375 9.444375 7.93359375 11.484375 C1.33359375 11.484375 -5.26640625 11.484375 -12.06640625 11.484375 C-10.7850783 3.79640729 -8.14276263 -0.55413886 0 0 Z " fill="#EBEBEB" transform="translate(1320.06640625,411.515625)"></path><path d="M0 0 C3.43522779 0.86054191 4.91964542 2.67705308 6.93359375 5.484375 C7.26359375 7.464375 7.59359375 9.444375 7.93359375 11.484375 C1.33359375 11.484375 -5.26640625 11.484375 -12.06640625 11.484375 C-10.7850783 3.79640729 -8.14276263 -0.55413886 0 0 Z " fill="#EBEBEB" transform="translate(708.06640625,411.515625)"></path><path d="M0 0 C2.4375 1.0625 2.4375 1.0625 4 3 C4.5625 6.4375 4.5625 6.4375 4 10 C1.40973731 12.97118368 -0.16059685 13.88008526 -4.0625 14.4375 C-7.44273423 13.93406086 -8.83222115 13.66803551 -11 11 C-11.56659452 8.22484315 -11.5609375 5.77577319 -11 3 C-8.05561307 -0.76881527 -4.51307994 -0.48354428 0 0 Z " fill="#0D0D0D" transform="translate(1313,257)"></path><path d="M0 0 C2.4375 1 2.4375 1 4 3 C4.56111226 5.77663799 4.56111226 8.22336201 4 11 C1.73077752 13.90460477 0.15004537 13.97856495 -3.5 14.5 C-7 14 -7 14 -9.4375 11.875 C-11.25658084 8.52789125 -11.65204101 6.74923579 -11 3 C-7.93204001 -0.68155198 -4.54559187 -0.4870277 0 0 Z " fill="#0E0E0E" transform="translate(1226,257)"></path><path d="M0 0 C2.4375 1.5625 2.4375 1.5625 4 4 C4.33 6.31 4.66 8.62 5 11 C-1.27 11 -7.54 11 -14 11 C-14 5.55123065 -13.55088954 4.7597654 -10 1 C-6.79468579 -0.6026571 -3.47781792 -0.48207377 0 0 Z " fill="#EFEFEF" transform="translate(841,412)"></path><path d="M0 0 C0.59932334 7.07201547 0.59932334 7.07201547 -1.9375 11 C-5.93229529 13.6088459 -9.32904657 13.87178895 -14 13 C-16 11 -16 11 -16.375 8.125 C-16 5 -16 5 -14.25 2.6875 C-9.77758543 -0.66681093 -5.40830274 -0.09013838 0 0 Z " fill="#F0F0F0" transform="translate(931,303)"></path><path d="M0 0 C2.33294775 -0.04241723 4.66702567 -0.04092937 7 0 C8 1 8 1 8.09765625 4.37890625 C8.09098369 5.77347077 8.07902532 7.16801743 8.0625 8.5625 C8.05798828 9.27341797 8.05347656 9.98433594 8.04882812 10.71679688 C8.03700864 12.47790013 8.01907263 14.23896036 8 16 C9.65 16 11.3 16 13 16 C13.33 17.32 13.66 18.64 14 20 C11.11584117 21.44207941 8.58278472 21.09394887 5.375 21.0625 C4.18648437 21.05347656 2.99796875 21.04445313 1.7734375 21.03515625 C0.85820313 21.02355469 -0.05703125 21.01195312 -1 21 C-1.5625 19.0625 -1.5625 19.0625 -2 17 C-1.67 16.67 -1.34 16.34 -1 16 C0.65 16 2.3 16 4 16 C4 12.04 4 8.08 4 4 C2.35 3.67 0.7 3.34 -1 3 C-0.67 2.01 -0.34 1.02 0 0 Z " fill="#111111" transform="translate(1421,415)"></path><path d="M0 0 C3.00871644 0.61162819 4.21137446 1.88408419 5.90234375 4.38671875 C6.23234375 6.03671875 6.56234375 7.68671875 6.90234375 9.38671875 C0.96234375 9.38671875 -4.97765625 9.38671875 -11.09765625 9.38671875 C-9.66011508 2.19901289 -7.28842856 -0.39360229 0 0 Z " fill="#F6F6F6" transform="translate(1020.09765625,285.61328125)"></path><path d="M0 0 C3 0.125 3 0.125 4 1.125 C4.1875 3.5625 4.1875 3.5625 4 6.125 C3.34 6.785 2.68 7.445 2 8.125 C-2.55555556 7.56944444 -2.55555556 7.56944444 -4 6.125 C-4.125 3.625 -4.125 3.625 -4 1.125 C-3 0.125 -3 0.125 0 0 Z " fill="#1D1D1D" transform="translate(807,392.875)"></path><path d="M0 0 C2.5 0.125 2.5 0.125 3.5 1.125 C3.6875 3.5625 3.6875 3.5625 3.5 6.125 C2.84 6.785 2.18 7.445 1.5 8.125 C-1.125 7.75 -1.125 7.75 -3.5 7.125 C-3.54254356 5.12545254 -3.54080783 3.12458364 -3.5 1.125 C-2.5 0.125 -2.5 0.125 0 0 Z " fill="#0D0D0D" transform="translate(1200.5,392.875)"></path><path d="M0 0 C2.5 0.125 2.5 0.125 3.5 1.125 C3.54080783 3.12458364 3.54254356 5.12545254 3.5 7.125 C1.125 7.75 1.125 7.75 -1.5 8.125 C-3.5 6.125 -3.5 6.125 -3.6875 3.5625 C-3.4324847 0.24730106 -3.33009823 0.16650491 0 0 Z " fill="#0A0A0A" transform="translate(764.5,392.875)"></path><path d="M0 0 C1.67542976 0.28604898 3.34385343 0.61781233 5 1 C5 2.32 5 3.64 5 5 C3.35 5.33 1.7 5.66 0 6 C-0.38218767 4.34385343 -0.71395102 2.67542976 -1 1 C-0.67 0.67 -0.34 0.34 0 0 Z " fill="#141414" transform="translate(1425,404)"></path></svg>